<?xml version="1.0" encoding="utf-8" standalone="no"?>
<!DOCTYPE svg PUBLIC "-//W3C//DTD SVG 1.1//EN"
  "http://www.w3.org/Graphics/SVG/1.1/DTD/svg11.dtd">
<svg xmlns:xlink="http://www.w3.org/1999/xlink" width="864pt" height="288pt" viewBox="0 0 864 288" xmlns="http://www.w3.org/2000/svg" version="1.1">
 <metadata>
  <rdf:RDF xmlns:dc="http://purl.org/dc/elements/1.1/" xmlns:cc="http://creativecommons.org/ns#" xmlns:rdf="http://www.w3.org/1999/02/22-rdf-syntax-ns#">
   <cc:Work>
    <dc:type rdf:resource="http://purl.org/dc/dcmitype/StillImage"/>
    <dc:date>2022-12-25T09:37:59.894658</dc:date>
    <dc:format>image/svg+xml</dc:format>
    <dc:creator>
     <cc:Agent>
      <dc:title>Matplotlib v3.5.2, https://matplotlib.org/</dc:title>
     </cc:Agent>
    </dc:creator>
   </cc:Work>
  </rdf:RDF>
 </metadata>
 <defs>
  <style type="text/css">*{stroke-linejoin: round; stroke-linecap: butt}</style>
 </defs>
 <g id="figure_1">
  <g id="patch_1">
   <path d="M 0 288 
L 864 288 
L 864 0 
L 0 0 
z
" style="fill: #ffffff"/>
  </g>
  <g id="axes_1">
   <g id="patch_2">
    <path d="M 108 256.32 
L 412.363636 256.32 
L 412.363636 34.56 
L 108 34.56 
z
" style="fill: #ffffff"/>
   </g>
   <g id="matplotlib.axis_1">
    <g id="xtick_1">
     <g id="line2d_1">
      <defs>
       <path id="m1de3be7006" d="M 0 0 
L 0 3.5 
" style="stroke: #000000; stroke-width: 0.8"/>
      </defs>
      <g>
       <use xlink:href="#m1de3be7006" x="121.807039" y="256.32" style="stroke: #000000; stroke-width: 0.8"/>
      </g>
     </g>
     <g id="text_1">
      <!-- 0 -->
      <g transform="translate(118.625789 270.918437)scale(0.1 -0.1)">
       <defs>
        <path id="DejaVuSans-30" d="M 2034 4250 
Q 1547 4250 1301 3770 
Q 1056 3291 1056 2328 
Q 1056 1369 1301 889 
Q 1547 409 2034 409 
Q 2525 409 2770 889 
Q 3016 1369 3016 2328 
Q 3016 3291 2770 3770 
Q 2525 4250 2034 4250 
z
M 2034 4750 
Q 2819 4750 3233 4129 
Q 3647 3509 3647 2328 
Q 3647 1150 3233 529 
Q 2819 -91 2034 -91 
Q 1250 -91 836 529 
Q 422 1150 422 2328 
Q 422 3509 836 4129 
Q 1250 4750 2034 4750 
z
" transform="scale(0.015625)"/>
       </defs>
       <use xlink:href="#DejaVuSans-30"/>
      </g>
     </g>
    </g>
    <g id="xtick_2">
     <g id="line2d_2">
      <g>
       <use xlink:href="#m1de3be7006" x="177.151416" y="256.32" style="stroke: #000000; stroke-width: 0.8"/>
      </g>
     </g>
     <g id="text_2">
      <!-- 2 -->
      <g transform="translate(173.970166 270.918437)scale(0.1 -0.1)">
       <defs>
        <path id="DejaVuSans-32" d="M 1228 531 
L 3431 531 
L 3431 0 
L 469 0 
L 469 531 
Q 828 903 1448 1529 
Q 2069 2156 2228 2338 
Q 2531 2678 2651 2914 
Q 2772 3150 2772 3378 
Q 2772 3750 2511 3984 
Q 2250 4219 1831 4219 
Q 1534 4219 1204 4116 
Q 875 4013 500 3803 
L 500 4441 
Q 881 4594 1212 4672 
Q 1544 4750 1819 4750 
Q 2544 4750 2975 4387 
Q 3406 4025 3406 3419 
Q 3406 3131 3298 2873 
Q 3191 2616 2906 2266 
Q 2828 2175 2409 1742 
Q 1991 1309 1228 531 
z
" transform="scale(0.015625)"/>
       </defs>
       <use xlink:href="#DejaVuSans-32"/>
      </g>
     </g>
    </g>
    <g id="xtick_3">
     <g id="line2d_3">
      <g>
       <use xlink:href="#m1de3be7006" x="232.495793" y="256.32" style="stroke: #000000; stroke-width: 0.8"/>
      </g>
     </g>
     <g id="text_3">
      <!-- 4 -->
      <g transform="translate(229.314543 270.918437)scale(0.1 -0.1)">
       <defs>
        <path id="DejaVuSans-34" d="M 2419 4116 
L 825 1625 
L 2419 1625 
L 2419 4116 
z
M 2253 4666 
L 3047 4666 
L 3047 1625 
L 3713 1625 
L 3713 1100 
L 3047 1100 
L 3047 0 
L 2419 0 
L 2419 1100 
L 313 1100 
L 313 1709 
L 2253 4666 
z
" transform="scale(0.015625)"/>
       </defs>
       <use xlink:href="#DejaVuSans-34"/>
      </g>
     </g>
    </g>
    <g id="xtick_4">
     <g id="line2d_4">
      <g>
       <use xlink:href="#m1de3be7006" x="287.840171" y="256.32" style="stroke: #000000; stroke-width: 0.8"/>
      </g>
     </g>
     <g id="text_4">
      <!-- 6 -->
      <g transform="translate(284.658921 270.918437)scale(0.1 -0.1)">
       <defs>
        <path id="DejaVuSans-36" d="M 2113 2584 
Q 1688 2584 1439 2293 
Q 1191 2003 1191 1497 
Q 1191 994 1439 701 
Q 1688 409 2113 409 
Q 2538 409 2786 701 
Q 3034 994 3034 1497 
Q 3034 2003 2786 2293 
Q 2538 2584 2113 2584 
z
M 3366 4563 
L 3366 3988 
Q 3128 4100 2886 4159 
Q 2644 4219 2406 4219 
Q 1781 4219 1451 3797 
Q 1122 3375 1075 2522 
Q 1259 2794 1537 2939 
Q 1816 3084 2150 3084 
Q 2853 3084 3261 2657 
Q 3669 2231 3669 1497 
Q 3669 778 3244 343 
Q 2819 -91 2113 -91 
Q 1303 -91 875 529 
Q 447 1150 447 2328 
Q 447 3434 972 4092 
Q 1497 4750 2381 4750 
Q 2619 4750 2861 4703 
Q 3103 4656 3366 4563 
z
" transform="scale(0.015625)"/>
       </defs>
       <use xlink:href="#DejaVuSans-36"/>
      </g>
     </g>
    </g>
    <g id="xtick_5">
     <g id="line2d_5">
      <g>
       <use xlink:href="#m1de3be7006" x="343.184548" y="256.32" style="stroke: #000000; stroke-width: 0.8"/>
      </g>
     </g>
     <g id="text_5">
      <!-- 8 -->
      <g transform="translate(340.003298 270.918437)scale(0.1 -0.1)">
       <defs>
        <path id="DejaVuSans-38" d="M 2034 2216 
Q 1584 2216 1326 1975 
Q 1069 1734 1069 1313 
Q 1069 891 1326 650 
Q 1584 409 2034 409 
Q 2484 409 2743 651 
Q 3003 894 3003 1313 
Q 3003 1734 2745 1975 
Q 2488 2216 2034 2216 
z
M 1403 2484 
Q 997 2584 770 2862 
Q 544 3141 544 3541 
Q 544 4100 942 4425 
Q 1341 4750 2034 4750 
Q 2731 4750 3128 4425 
Q 3525 4100 3525 3541 
Q 3525 3141 3298 2862 
Q 3072 2584 2669 2484 
Q 3125 2378 3379 2068 
Q 3634 1759 3634 1313 
Q 3634 634 3220 271 
Q 2806 -91 2034 -91 
Q 1263 -91 848 271 
Q 434 634 434 1313 
Q 434 1759 690 2068 
Q 947 2378 1403 2484 
z
M 1172 3481 
Q 1172 3119 1398 2916 
Q 1625 2713 2034 2713 
Q 2441 2713 2670 2916 
Q 2900 3119 2900 3481 
Q 2900 3844 2670 4047 
Q 2441 4250 2034 4250 
Q 1625 4250 1398 4047 
Q 1172 3844 1172 3481 
z
" transform="scale(0.015625)"/>
       </defs>
       <use xlink:href="#DejaVuSans-38"/>
      </g>
     </g>
    </g>
    <g id="xtick_6">
     <g id="line2d_6">
      <g>
       <use xlink:href="#m1de3be7006" x="398.528926" y="256.32" style="stroke: #000000; stroke-width: 0.8"/>
      </g>
     </g>
     <g id="text_6">
      <!-- 10 -->
      <g transform="translate(392.166426 270.918437)scale(0.1 -0.1)">
       <defs>
        <path id="DejaVuSans-31" d="M 794 531 
L 1825 531 
L 1825 4091 
L 703 3866 
L 703 4441 
L 1819 4666 
L 2450 4666 
L 2450 531 
L 3481 531 
L 3481 0 
L 794 0 
L 794 531 
z
" transform="scale(0.015625)"/>
       </defs>
       <use xlink:href="#DejaVuSans-31"/>
       <use xlink:href="#DejaVuSans-30" x="63.623047"/>
      </g>
     </g>
    </g>
    <g id="xtick_7">
     <g id="line2d_7">
      <defs>
       <path id="mea57cb763c" d="M 0 0 
L 0 2 
" style="stroke: #000000; stroke-width: 0.6"/>
      </defs>
      <g>
       <use xlink:href="#mea57cb763c" x="135.643133" y="256.32" style="stroke: #000000; stroke-width: 0.6"/>
      </g>
     </g>
    </g>
    <g id="xtick_8">
     <g id="line2d_8">
      <g>
       <use xlink:href="#mea57cb763c" x="149.479227" y="256.32" style="stroke: #000000; stroke-width: 0.6"/>
      </g>
     </g>
    </g>
    <g id="xtick_9">
     <g id="line2d_9">
      <g>
       <use xlink:href="#mea57cb763c" x="163.315322" y="256.32" style="stroke: #000000; stroke-width: 0.6"/>
      </g>
     </g>
    </g>
    <g id="xtick_10">
     <g id="line2d_10">
      <g>
       <use xlink:href="#mea57cb763c" x="190.98751" y="256.32" style="stroke: #000000; stroke-width: 0.6"/>
      </g>
     </g>
    </g>
    <g id="xtick_11">
     <g id="line2d_11">
      <g>
       <use xlink:href="#mea57cb763c" x="204.823605" y="256.32" style="stroke: #000000; stroke-width: 0.6"/>
      </g>
     </g>
    </g>
    <g id="xtick_12">
     <g id="line2d_12">
      <g>
       <use xlink:href="#mea57cb763c" x="218.659699" y="256.32" style="stroke: #000000; stroke-width: 0.6"/>
      </g>
     </g>
    </g>
    <g id="xtick_13">
     <g id="line2d_13">
      <g>
       <use xlink:href="#mea57cb763c" x="246.331888" y="256.32" style="stroke: #000000; stroke-width: 0.6"/>
      </g>
     </g>
    </g>
    <g id="xtick_14">
     <g id="line2d_14">
      <g>
       <use xlink:href="#mea57cb763c" x="260.167982" y="256.32" style="stroke: #000000; stroke-width: 0.6"/>
      </g>
     </g>
    </g>
    <g id="xtick_15">
     <g id="line2d_15">
      <g>
       <use xlink:href="#mea57cb763c" x="274.004076" y="256.32" style="stroke: #000000; stroke-width: 0.6"/>
      </g>
     </g>
    </g>
    <g id="xtick_16">
     <g id="line2d_16">
      <g>
       <use xlink:href="#mea57cb763c" x="301.676265" y="256.32" style="stroke: #000000; stroke-width: 0.6"/>
      </g>
     </g>
    </g>
    <g id="xtick_17">
     <g id="line2d_17">
      <g>
       <use xlink:href="#mea57cb763c" x="315.51236" y="256.32" style="stroke: #000000; stroke-width: 0.6"/>
      </g>
     </g>
    </g>
    <g id="xtick_18">
     <g id="line2d_18">
      <g>
       <use xlink:href="#mea57cb763c" x="329.348454" y="256.32" style="stroke: #000000; stroke-width: 0.6"/>
      </g>
     </g>
    </g>
    <g id="xtick_19">
     <g id="line2d_19">
      <g>
       <use xlink:href="#mea57cb763c" x="357.020643" y="256.32" style="stroke: #000000; stroke-width: 0.6"/>
      </g>
     </g>
    </g>
    <g id="xtick_20">
     <g id="line2d_20">
      <g>
       <use xlink:href="#mea57cb763c" x="370.856737" y="256.32" style="stroke: #000000; stroke-width: 0.6"/>
      </g>
     </g>
    </g>
    <g id="xtick_21">
     <g id="line2d_21">
      <g>
       <use xlink:href="#mea57cb763c" x="384.692831" y="256.32" style="stroke: #000000; stroke-width: 0.6"/>
      </g>
     </g>
    </g>
    <g id="text_7">
     <!-- episode(x1k) -->
     <g transform="translate(347.379261 284.596563)scale(0.1 -0.1)">
      <defs>
       <path id="DejaVuSans-65" d="M 3597 1894 
L 3597 1613 
L 953 1613 
Q 991 1019 1311 708 
Q 1631 397 2203 397 
Q 2534 397 2845 478 
Q 3156 559 3463 722 
L 3463 178 
Q 3153 47 2828 -22 
Q 2503 -91 2169 -91 
Q 1331 -91 842 396 
Q 353 884 353 1716 
Q 353 2575 817 3079 
Q 1281 3584 2069 3584 
Q 2775 3584 3186 3129 
Q 3597 2675 3597 1894 
z
M 3022 2063 
Q 3016 2534 2758 2815 
Q 2500 3097 2075 3097 
Q 1594 3097 1305 2825 
Q 1016 2553 972 2059 
L 3022 2063 
z
" transform="scale(0.015625)"/>
       <path id="DejaVuSans-70" d="M 1159 525 
L 1159 -1331 
L 581 -1331 
L 581 3500 
L 1159 3500 
L 1159 2969 
Q 1341 3281 1617 3432 
Q 1894 3584 2278 3584 
Q 2916 3584 3314 3078 
Q 3713 2572 3713 1747 
Q 3713 922 3314 415 
Q 2916 -91 2278 -91 
Q 1894 -91 1617 61 
Q 1341 213 1159 525 
z
M 3116 1747 
Q 3116 2381 2855 2742 
Q 2594 3103 2138 3103 
Q 1681 3103 1420 2742 
Q 1159 2381 1159 1747 
Q 1159 1113 1420 752 
Q 1681 391 2138 391 
Q 2594 391 2855 752 
Q 3116 1113 3116 1747 
z
" transform="scale(0.015625)"/>
       <path id="DejaVuSans-69" d="M 603 3500 
L 1178 3500 
L 1178 0 
L 603 0 
L 603 3500 
z
M 603 4863 
L 1178 4863 
L 1178 4134 
L 603 4134 
L 603 4863 
z
" transform="scale(0.015625)"/>
       <path id="DejaVuSans-73" d="M 2834 3397 
L 2834 2853 
Q 2591 2978 2328 3040 
Q 2066 3103 1784 3103 
Q 1356 3103 1142 2972 
Q 928 2841 928 2578 
Q 928 2378 1081 2264 
Q 1234 2150 1697 2047 
L 1894 2003 
Q 2506 1872 2764 1633 
Q 3022 1394 3022 966 
Q 3022 478 2636 193 
Q 2250 -91 1575 -91 
Q 1294 -91 989 -36 
Q 684 19 347 128 
L 347 722 
Q 666 556 975 473 
Q 1284 391 1588 391 
Q 1994 391 2212 530 
Q 2431 669 2431 922 
Q 2431 1156 2273 1281 
Q 2116 1406 1581 1522 
L 1381 1569 
Q 847 1681 609 1914 
Q 372 2147 372 2553 
Q 372 3047 722 3315 
Q 1072 3584 1716 3584 
Q 2034 3584 2315 3537 
Q 2597 3491 2834 3397 
z
" transform="scale(0.015625)"/>
       <path id="DejaVuSans-6f" d="M 1959 3097 
Q 1497 3097 1228 2736 
Q 959 2375 959 1747 
Q 959 1119 1226 758 
Q 1494 397 1959 397 
Q 2419 397 2687 759 
Q 2956 1122 2956 1747 
Q 2956 2369 2687 2733 
Q 2419 3097 1959 3097 
z
M 1959 3584 
Q 2709 3584 3137 3096 
Q 3566 2609 3566 1747 
Q 3566 888 3137 398 
Q 2709 -91 1959 -91 
Q 1206 -91 779 398 
Q 353 888 353 1747 
Q 353 2609 779 3096 
Q 1206 3584 1959 3584 
z
" transform="scale(0.015625)"/>
       <path id="DejaVuSans-64" d="M 2906 2969 
L 2906 4863 
L 3481 4863 
L 3481 0 
L 2906 0 
L 2906 525 
Q 2725 213 2448 61 
Q 2172 -91 1784 -91 
Q 1150 -91 751 415 
Q 353 922 353 1747 
Q 353 2572 751 3078 
Q 1150 3584 1784 3584 
Q 2172 3584 2448 3432 
Q 2725 3281 2906 2969 
z
M 947 1747 
Q 947 1113 1208 752 
Q 1469 391 1925 391 
Q 2381 391 2643 752 
Q 2906 1113 2906 1747 
Q 2906 2381 2643 2742 
Q 2381 3103 1925 3103 
Q 1469 3103 1208 2742 
Q 947 2381 947 1747 
z
" transform="scale(0.015625)"/>
       <path id="DejaVuSans-28" d="M 1984 4856 
Q 1566 4138 1362 3434 
Q 1159 2731 1159 2009 
Q 1159 1288 1364 580 
Q 1569 -128 1984 -844 
L 1484 -844 
Q 1016 -109 783 600 
Q 550 1309 550 2009 
Q 550 2706 781 3412 
Q 1013 4119 1484 4856 
L 1984 4856 
z
" transform="scale(0.015625)"/>
       <path id="DejaVuSans-78" d="M 3513 3500 
L 2247 1797 
L 3578 0 
L 2900 0 
L 1881 1375 
L 863 0 
L 184 0 
L 1544 1831 
L 300 3500 
L 978 3500 
L 1906 2253 
L 2834 3500 
L 3513 3500 
z
" transform="scale(0.015625)"/>
       <path id="DejaVuSans-6b" d="M 581 4863 
L 1159 4863 
L 1159 1991 
L 2875 3500 
L 3609 3500 
L 1753 1863 
L 3688 0 
L 2938 0 
L 1159 1709 
L 1159 0 
L 581 0 
L 581 4863 
z
" transform="scale(0.015625)"/>
       <path id="DejaVuSans-29" d="M 513 4856 
L 1013 4856 
Q 1481 4119 1714 3412 
Q 1947 2706 1947 2009 
Q 1947 1309 1714 600 
Q 1481 -109 1013 -844 
L 513 -844 
Q 928 -128 1133 580 
Q 1338 1288 1338 2009 
Q 1338 2731 1133 3434 
Q 928 4138 513 4856 
z
" transform="scale(0.015625)"/>
      </defs>
      <use xlink:href="#DejaVuSans-65"/>
      <use xlink:href="#DejaVuSans-70" x="61.523438"/>
      <use xlink:href="#DejaVuSans-69" x="125"/>
      <use xlink:href="#DejaVuSans-73" x="152.783203"/>
      <use xlink:href="#DejaVuSans-6f" x="204.882812"/>
      <use xlink:href="#DejaVuSans-64" x="266.064453"/>
      <use xlink:href="#DejaVuSans-65" x="329.541016"/>
      <use xlink:href="#DejaVuSans-28" x="391.064453"/>
      <use xlink:href="#DejaVuSans-78" x="430.078125"/>
      <use xlink:href="#DejaVuSans-31" x="489.257812"/>
      <use xlink:href="#DejaVuSans-6b" x="552.880859"/>
      <use xlink:href="#DejaVuSans-29" x="610.791016"/>
     </g>
    </g>
   </g>
   <g id="matplotlib.axis_2">
    <g id="ytick_1">
     <g id="line2d_22">
      <defs>
       <path id="m511b0a71da" d="M 0 0 
L -3.5 0 
" style="stroke: #000000; stroke-width: 0.8"/>
      </defs>
      <g>
       <use xlink:href="#m511b0a71da" x="108" y="256.32" style="stroke: #000000; stroke-width: 0.8"/>
      </g>
     </g>
     <g id="text_8">
      <!-- 0 -->
      <g transform="translate(94.6375 260.119219)scale(0.1 -0.1)">
       <use xlink:href="#DejaVuSans-30"/>
      </g>
     </g>
    </g>
    <g id="ytick_2">
     <g id="line2d_23">
      <g>
       <use xlink:href="#m511b0a71da" x="108" y="211.968" style="stroke: #000000; stroke-width: 0.8"/>
      </g>
     </g>
     <g id="text_9">
      <!-- 20 -->
      <g transform="translate(88.275 215.767219)scale(0.1 -0.1)">
       <use xlink:href="#DejaVuSans-32"/>
       <use xlink:href="#DejaVuSans-30" x="63.623047"/>
      </g>
     </g>
    </g>
    <g id="ytick_3">
     <g id="line2d_24">
      <g>
       <use xlink:href="#m511b0a71da" x="108" y="167.616" style="stroke: #000000; stroke-width: 0.8"/>
      </g>
     </g>
     <g id="text_10">
      <!-- 40 -->
      <g transform="translate(88.275 171.415219)scale(0.1 -0.1)">
       <use xlink:href="#DejaVuSans-34"/>
       <use xlink:href="#DejaVuSans-30" x="63.623047"/>
      </g>
     </g>
    </g>
    <g id="ytick_4">
     <g id="line2d_25">
      <g>
       <use xlink:href="#m511b0a71da" x="108" y="123.264" style="stroke: #000000; stroke-width: 0.8"/>
      </g>
     </g>
     <g id="text_11">
      <!-- 60 -->
      <g transform="translate(88.275 127.063219)scale(0.1 -0.1)">
       <use xlink:href="#DejaVuSans-36"/>
       <use xlink:href="#DejaVuSans-30" x="63.623047"/>
      </g>
     </g>
    </g>
    <g id="ytick_5">
     <g id="line2d_26">
      <g>
       <use xlink:href="#m511b0a71da" x="108" y="78.912" style="stroke: #000000; stroke-width: 0.8"/>
      </g>
     </g>
     <g id="text_12">
      <!-- 80 -->
      <g transform="translate(88.275 82.711219)scale(0.1 -0.1)">
       <use xlink:href="#DejaVuSans-38"/>
       <use xlink:href="#DejaVuSans-30" x="63.623047"/>
      </g>
     </g>
    </g>
    <g id="ytick_6">
     <g id="line2d_27">
      <g>
       <use xlink:href="#m511b0a71da" x="108" y="34.56" style="stroke: #000000; stroke-width: 0.8"/>
      </g>
     </g>
     <g id="text_13">
      <!-- 100 -->
      <g transform="translate(81.9125 38.359219)scale(0.1 -0.1)">
       <use xlink:href="#DejaVuSans-31"/>
       <use xlink:href="#DejaVuSans-30" x="63.623047"/>
       <use xlink:href="#DejaVuSans-30" x="127.246094"/>
      </g>
     </g>
    </g>
    <g id="ytick_7">
     <g id="line2d_28">
      <defs>
       <path id="m92d91c51f7" d="M 0 0 
L -2 0 
" style="stroke: #000000; stroke-width: 0.6"/>
      </defs>
      <g>
       <use xlink:href="#m92d91c51f7" x="108" y="245.232" style="stroke: #000000; stroke-width: 0.6"/>
      </g>
     </g>
    </g>
    <g id="ytick_8">
     <g id="line2d_29">
      <g>
       <use xlink:href="#m92d91c51f7" x="108" y="234.144" style="stroke: #000000; stroke-width: 0.6"/>
      </g>
     </g>
    </g>
    <g id="ytick_9">
     <g id="line2d_30">
      <g>
       <use xlink:href="#m92d91c51f7" x="108" y="223.056" style="stroke: #000000; stroke-width: 0.6"/>
      </g>
     </g>
    </g>
    <g id="ytick_10">
     <g id="line2d_31">
      <g>
       <use xlink:href="#m92d91c51f7" x="108" y="200.88" style="stroke: #000000; stroke-width: 0.6"/>
      </g>
     </g>
    </g>
    <g id="ytick_11">
     <g id="line2d_32">
      <g>
       <use xlink:href="#m92d91c51f7" x="108" y="189.792" style="stroke: #000000; stroke-width: 0.6"/>
      </g>
     </g>
    </g>
    <g id="ytick_12">
     <g id="line2d_33">
      <g>
       <use xlink:href="#m92d91c51f7" x="108" y="178.704" style="stroke: #000000; stroke-width: 0.6"/>
      </g>
     </g>
    </g>
    <g id="ytick_13">
     <g id="line2d_34">
      <g>
       <use xlink:href="#m92d91c51f7" x="108" y="156.528" style="stroke: #000000; stroke-width: 0.6"/>
      </g>
     </g>
    </g>
    <g id="ytick_14">
     <g id="line2d_35">
      <g>
       <use xlink:href="#m92d91c51f7" x="108" y="145.44" style="stroke: #000000; stroke-width: 0.6"/>
      </g>
     </g>
    </g>
    <g id="ytick_15">
     <g id="line2d_36">
      <g>
       <use xlink:href="#m92d91c51f7" x="108" y="134.352" style="stroke: #000000; stroke-width: 0.6"/>
      </g>
     </g>
    </g>
    <g id="ytick_16">
     <g id="line2d_37">
      <g>
       <use xlink:href="#m92d91c51f7" x="108" y="112.176" style="stroke: #000000; stroke-width: 0.6"/>
      </g>
     </g>
    </g>
    <g id="ytick_17">
     <g id="line2d_38">
      <g>
       <use xlink:href="#m92d91c51f7" x="108" y="101.088" style="stroke: #000000; stroke-width: 0.6"/>
      </g>
     </g>
    </g>
    <g id="ytick_18">
     <g id="line2d_39">
      <g>
       <use xlink:href="#m92d91c51f7" x="108" y="90" style="stroke: #000000; stroke-width: 0.6"/>
      </g>
     </g>
    </g>
    <g id="ytick_19">
     <g id="line2d_40">
      <g>
       <use xlink:href="#m92d91c51f7" x="108" y="67.824" style="stroke: #000000; stroke-width: 0.6"/>
      </g>
     </g>
    </g>
    <g id="ytick_20">
     <g id="line2d_41">
      <g>
       <use xlink:href="#m92d91c51f7" x="108" y="56.736" style="stroke: #000000; stroke-width: 0.6"/>
      </g>
     </g>
    </g>
    <g id="ytick_21">
     <g id="line2d_42">
      <g>
       <use xlink:href="#m92d91c51f7" x="108" y="45.648" style="stroke: #000000; stroke-width: 0.6"/>
      </g>
     </g>
    </g>
    <g id="text_14">
     <!-- reward / round -->
     <g transform="translate(75.832812 107.942813)rotate(-90)scale(0.1 -0.1)">
      <defs>
       <path id="DejaVuSans-72" d="M 2631 2963 
Q 2534 3019 2420 3045 
Q 2306 3072 2169 3072 
Q 1681 3072 1420 2755 
Q 1159 2438 1159 1844 
L 1159 0 
L 581 0 
L 581 3500 
L 1159 3500 
L 1159 2956 
Q 1341 3275 1631 3429 
Q 1922 3584 2338 3584 
Q 2397 3584 2469 3576 
Q 2541 3569 2628 3553 
L 2631 2963 
z
" transform="scale(0.015625)"/>
       <path id="DejaVuSans-77" d="M 269 3500 
L 844 3500 
L 1563 769 
L 2278 3500 
L 2956 3500 
L 3675 769 
L 4391 3500 
L 4966 3500 
L 4050 0 
L 3372 0 
L 2619 2869 
L 1863 0 
L 1184 0 
L 269 3500 
z
" transform="scale(0.015625)"/>
       <path id="DejaVuSans-61" d="M 2194 1759 
Q 1497 1759 1228 1600 
Q 959 1441 959 1056 
Q 959 750 1161 570 
Q 1363 391 1709 391 
Q 2188 391 2477 730 
Q 2766 1069 2766 1631 
L 2766 1759 
L 2194 1759 
z
M 3341 1997 
L 3341 0 
L 2766 0 
L 2766 531 
Q 2569 213 2275 61 
Q 1981 -91 1556 -91 
Q 1019 -91 701 211 
Q 384 513 384 1019 
Q 384 1609 779 1909 
Q 1175 2209 1959 2209 
L 2766 2209 
L 2766 2266 
Q 2766 2663 2505 2880 
Q 2244 3097 1772 3097 
Q 1472 3097 1187 3025 
Q 903 2953 641 2809 
L 641 3341 
Q 956 3463 1253 3523 
Q 1550 3584 1831 3584 
Q 2591 3584 2966 3190 
Q 3341 2797 3341 1997 
z
" transform="scale(0.015625)"/>
       <path id="DejaVuSans-20" transform="scale(0.015625)"/>
       <path id="DejaVuSans-2f" d="M 1625 4666 
L 2156 4666 
L 531 -594 
L 0 -594 
L 1625 4666 
z
" transform="scale(0.015625)"/>
       <path id="DejaVuSans-75" d="M 544 1381 
L 544 3500 
L 1119 3500 
L 1119 1403 
Q 1119 906 1312 657 
Q 1506 409 1894 409 
Q 2359 409 2629 706 
Q 2900 1003 2900 1516 
L 2900 3500 
L 3475 3500 
L 3475 0 
L 2900 0 
L 2900 538 
Q 2691 219 2414 64 
Q 2138 -91 1772 -91 
Q 1169 -91 856 284 
Q 544 659 544 1381 
z
M 1991 3584 
L 1991 3584 
z
" transform="scale(0.015625)"/>
       <path id="DejaVuSans-6e" d="M 3513 2113 
L 3513 0 
L 2938 0 
L 2938 2094 
Q 2938 2591 2744 2837 
Q 2550 3084 2163 3084 
Q 1697 3084 1428 2787 
Q 1159 2491 1159 1978 
L 1159 0 
L 581 0 
L 581 3500 
L 1159 3500 
L 1159 2956 
Q 1366 3272 1645 3428 
Q 1925 3584 2291 3584 
Q 2894 3584 3203 3211 
Q 3513 2838 3513 2113 
z
" transform="scale(0.015625)"/>
      </defs>
      <use xlink:href="#DejaVuSans-72"/>
      <use xlink:href="#DejaVuSans-65" x="38.863281"/>
      <use xlink:href="#DejaVuSans-77" x="100.386719"/>
      <use xlink:href="#DejaVuSans-61" x="182.173828"/>
      <use xlink:href="#DejaVuSans-72" x="243.453125"/>
      <use xlink:href="#DejaVuSans-64" x="282.816406"/>
      <use xlink:href="#DejaVuSans-20" x="346.292969"/>
      <use xlink:href="#DejaVuSans-2f" x="378.080078"/>
      <use xlink:href="#DejaVuSans-20" x="411.771484"/>
      <use xlink:href="#DejaVuSans-72" x="443.558594"/>
      <use xlink:href="#DejaVuSans-6f" x="482.421875"/>
      <use xlink:href="#DejaVuSans-75" x="543.603516"/>
      <use xlink:href="#DejaVuSans-6e" x="606.982422"/>
      <use xlink:href="#DejaVuSans-64" x="670.361328"/>
     </g>
    </g>
   </g>
   <g id="line2d_43">
    <path d="M 121.834711 209.4732 
L 122.208117 209.861278 
L 122.581524 202.986722 
L 122.95493 203.27085 
L 123.328337 205.023412 
L 124.448556 203.868939 
L 124.821963 204.7608 
L 125.195369 204.317278 
L 125.568776 203.58547 
L 125.942182 207.577153 
L 126.315589 207.200161 
L 126.688995 206.047008 
L 127.062402 205.293023 
L 127.435808 207.133631 
L 127.809215 207.222337 
L 128.182621 206.069184 
L 128.556028 206.534878 
L 128.929434 204.938208 
L 129.676247 205.93613 
L 130.049654 205.8696 
L 130.42306 206.557055 
L 130.796467 206.290945 
L 131.169873 206.712286 
L 131.54328 205.3152 
L 131.916686 205.293023 
L 132.290093 204.494686 
L 132.663499 206.49053 
L 133.410312 205.670016 
L 134.157125 207.798914 
L 134.530532 206.335294 
L 134.903938 207.022753 
L 135.277345 207.421922 
L 135.650751 207.155808 
L 136.024158 208.597247 
L 136.397564 209.107294 
L 136.770971 205.736545 
L 137.144377 205.714369 
L 137.517784 203.563294 
L 137.89119 203.58547 
L 138.264597 204.516863 
L 138.638003 204.450337 
L 139.01141 200.990878 
L 139.384816 204.117694 
L 139.758223 203.541122 
L 140.131629 207.155808 
L 140.505036 206.579231 
L 140.878442 206.867522 
L 141.251849 206.180063 
L 141.625255 207.266686 
L 141.998662 208.730306 
L 142.372068 208.996416 
L 142.745475 208.752478 
L 143.118881 205.559137 
L 143.492288 204.539039 
L 144.239101 204.405984 
L 144.612507 204.117694 
L 144.985914 204.605569 
L 145.35932 204.162047 
L 145.732727 204.871678 
L 146.852946 208.042847 
L 147.226353 208.042847 
L 147.599759 208.57507 
L 147.973166 208.663777 
L 148.346572 209.351231 
L 148.719979 211.724063 
L 149.093385 209.839106 
L 149.466792 206.246592 
L 149.840198 204.317278 
L 150.213605 203.785055 
L 150.587011 204.117694 
L 150.960418 204.982561 
L 151.333824 204.028992 
L 152.454044 207.311039 
L 152.82745 208.442016 
L 153.200857 206.667937 
L 153.574263 207.554977 
L 153.94767 206.690114 
L 155.067889 209.883455 
L 155.441296 207.311039 
L 155.814702 207.621506 
L 156.188109 205.359553 
L 157.308328 202.166208 
L 157.681735 203.252831 
L 158.055141 202.299263 
L 158.801954 207.5328 
L 159.175361 207.621506 
L 159.548767 208.131553 
L 159.922174 208.242431 
L 160.29558 209.062945 
L 160.668987 210.770494 
L 161.042393 208.796831 
L 161.4158 208.929886 
L 161.789206 207.222337 
L 162.162613 206.601408 
L 162.536019 205.536961 
L 162.909426 205.847423 
L 163.282832 206.534878 
L 163.656238 205.958306 
L 164.029645 209.417761 
L 164.403051 207.954145 
L 164.776458 209.351231 
L 165.149864 209.196 
L 165.896677 205.204322 
L 166.270084 201.877922 
L 166.64349 200.369953 
L 167.016897 202.565377 
L 167.76371 200.303423 
L 168.137116 204.428161 
L 168.510523 204.849506 
L 169.257336 208.530722 
L 169.630742 208.685953 
L 170.004149 209.085122 
L 170.750962 210.127392 
L 171.124368 208.486369 
L 171.497775 209.085122 
L 171.871181 208.774655 
L 172.617994 207.288863 
L 172.991401 206.9784 
L 173.364807 208.752478 
L 173.738214 208.752478 
L 174.11162 207.909792 
L 174.485027 207.46627 
L 174.858433 209.68387 
L 175.23184 207.421922 
L 175.605246 208.286784 
L 175.978653 208.15373 
L 176.725466 207.399745 
L 177.098872 206.024831 
L 177.472279 207.554977 
L 177.845685 203.607647 
L 178.219092 203.740706 
L 178.592498 206.712286 
L 178.965905 205.736545 
L 179.339311 205.825247 
L 179.712718 206.268769 
L 180.086124 206.113537 
L 180.459531 206.335294 
L 180.832937 209.351231 
L 181.206344 209.728223 
L 181.57975 209.595169 
L 181.953157 207.59933 
L 182.326563 207.399745 
L 182.69997 206.867522 
L 183.073376 206.135714 
L 183.446783 205.847423 
L 183.820189 204.805153 
L 184.567002 203.652 
L 185.313815 203.541122 
L 185.687222 204.82733 
L 186.060628 203.230655 
L 186.434035 207.244514 
L 186.807441 209.306878 
L 187.180848 213.342914 
L 187.554254 214.651294 
L 188.301067 221.814143 
L 189.04788 226.360223 
L 189.421287 226.914623 
L 189.794693 227.025504 
L 190.541506 226.648512 
L 190.914913 226.892447 
L 191.661726 225.184896 
L 192.408539 223.654753 
L 192.781945 221.681088 
L 193.155352 220.927104 
L 193.528758 218.465569 
L 193.902165 214.318655 
L 194.648978 213.121153 
L 195.022384 211.968 
L 195.395791 212.012353 
L 196.142604 214.473886 
L 196.51601 214.828706 
L 197.63623 221.126688 
L 199.129856 223.49952 
L 199.503262 224.874431 
L 199.876669 224.852257 
L 200.996888 225.584065 
L 201.370295 226.293696 
L 201.743701 226.715039 
L 202.117108 203.829408 
L 202.490514 203.496769 
L 202.863921 200.081663 
L 203.237327 199.682494 
L 203.610734 200.480831 
L 203.98414 200.126016 
L 204.357547 199.571616 
L 204.730953 191.832192 
L 205.10436 186.776063 
L 205.477766 178.238306 
L 205.851173 174.069216 
L 206.224579 171.385922 
L 206.597986 170.521059 
L 206.971392 156.993694 
L 207.344799 156.882816 
L 207.718205 151.139231 
L 208.091612 176.264643 
L 208.465018 179.125341 
L 209.211831 182.606972 
L 209.585238 184.137122 
L 209.958644 187.130878 
L 210.332051 187.396992 
L 211.078864 191.277792 
L 211.45227 187.773984 
L 211.825677 188.040094 
L 212.199083 187.929216 
L 212.57249 186.199486 
L 212.945896 182.651325 
L 213.319303 186.443423 
L 213.692709 188.06227 
L 214.066116 186.576478 
L 214.439522 186.155137 
L 214.812929 187.485694 
L 215.186335 187.485694 
L 215.559742 192.918816 
L 215.933148 192.830114 
L 216.306555 187.08653 
L 216.679961 190.324223 
L 217.053368 185.622914 
L 217.426774 188.550145 
L 217.800181 183.42749 
L 218.173587 185.09069 
L 218.546994 185.024157 
L 218.9204 188.794078 
L 219.293807 185.534208 
L 219.667213 183.937537 
L 220.04062 184.026243 
L 220.414026 180.699843 
L 221.160839 177.196031 
L 221.534246 177.018628 
L 221.907652 178.859231 
L 222.281059 176.619459 
L 222.654465 180.012384 
L 223.027872 184.758047 
L 223.401278 186.110784 
L 223.774685 186.044255 
L 224.148091 184.248 
L 224.521498 184.292353 
L 224.894904 182.363043 
L 225.268311 178.637475 
L 225.641717 180.455906 
L 226.015124 180.677663 
L 226.761937 184.51411 
L 227.135343 184.469757 
L 227.50875 189.503714 
L 227.882156 189.880706 
L 228.255563 189.925055 
L 228.628969 184.203647 
L 229.002376 184.070588 
L 229.375782 185.733792 
L 229.749189 177.129506 
L 230.122595 177.0408 
L 230.496002 182.87309 
L 230.869408 176.242463 
L 231.242815 176.508572 
L 231.616221 176.597278 
L 231.989628 170.65411 
L 232.363034 175.11149 
L 232.736441 176.685984 
L 233.109847 181.697757 
L 233.483254 185.09069 
L 233.85666 183.360957 
L 234.230067 182.540447 
L 234.603473 185.866847 
L 234.97688 180.611137 
L 235.350286 180.65549 
L 236.097099 176.952094 
L 236.470506 176.77469 
L 237.217319 180.899428 
L 237.590725 177.816957 
L 237.964132 178.216125 
L 238.337538 178.1496 
L 238.710945 179.591043 
L 239.084351 184.891106 
L 239.457758 184.070588 
L 239.831164 182.562628 
L 240.204571 182.518275 
L 240.577977 185.445506 
L 240.951384 186.332545 
L 241.32479 182.207812 
L 242.071603 185.9112 
L 242.44501 183.582722 
L 242.818416 186.39907 
L 243.191823 185.401153 
L 243.565229 188.372737 
L 243.938636 183.737953 
L 244.312042 187.796161 
L 244.685449 176.375522 
L 245.058855 172.716478 
L 245.432262 174.047043 
L 245.805668 168.148228 
L 246.179075 165.065757 
L 246.552481 159.543937 
L 246.925888 159.610463 
L 247.299294 162.293757 
L 247.672701 160.941028 
L 248.046107 165.509278 
L 248.419514 165.376228 
L 248.79292 161.672831 
L 249.166326 165.487106 
L 249.539733 164.045663 
L 249.913139 163.934784 
L 250.286546 166.928541 
L 250.659952 171.563325 
L 251.406765 170.188416 
L 251.780172 167.815584 
L 252.153578 166.307616 
L 252.526985 166.906369 
L 252.900391 165.819741 
L 253.273798 172.206431 
L 254.767424 169.234847 
L 255.514237 175.488478 
L 255.887643 176.175937 
L 256.26105 159.810047 
L 256.634456 156.860643 
L 257.007863 156.838463 
L 257.381269 160.209216 
L 257.754676 161.295843 
L 258.128082 157.37069 
L 258.874895 160.076157 
L 259.248302 161.184957 
L 259.621708 164.866172 
L 260.368521 159.743522 
L 260.741928 159.56611 
L 261.115334 157.126753 
L 261.862147 153.556416 
L 262.235554 157.326337 
L 262.60896 150.451772 
L 262.982367 149.276447 
L 263.72918 151.405341 
L 264.102586 148.012416 
L 264.475993 147.568894 
L 264.849399 144.353372 
L 265.222806 143.355459 
L 265.596212 141.603553 
L 265.969619 141.0048 
L 266.343025 140.893922 
L 266.716432 138.7872 
L 267.089838 138.321506 
L 267.836651 136.880063 
L 268.210058 134.995106 
L 268.583464 135.017278 
L 268.956871 137.634047 
L 269.330277 138.853725 
L 269.703684 137.6784 
L 270.07709 140.672157 
L 270.450497 139.740769 
L 270.823903 139.940353 
L 271.19731 139.652063 
L 271.570716 135.261216 
L 271.944123 132.644447 
L 272.317529 133.442784 
L 272.690936 132.733153 
L 273.064342 135.128157 
L 273.437749 133.065788 
L 273.811155 132.378337 
L 274.184562 133.154494 
L 274.557968 135.72691 
L 274.931375 135.416447 
L 275.304781 135.682557 
L 275.678188 135.017278 
L 276.051594 133.775428 
L 276.425001 133.598016 
L 276.798407 133.930659 
L 277.171814 133.731075 
L 277.54522 134.019357 
L 277.918627 132.200925 
L 278.66544 136.170431 
L 279.038846 136.103906 
L 279.785659 137.146172 
L 280.159066 134.507231 
L 280.532472 137.611875 
L 280.905879 136.658306 
L 281.279285 140.406047 
L 281.652692 142.712353 
L 282.772911 139.275075 
L 283.146318 137.057475 
L 283.519724 136.85789 
L 283.893131 137.168353 
L 284.266537 136.547428 
L 284.639944 135.704737 
L 285.01335 135.239043 
L 285.386757 134.152416 
L 285.760163 133.841953 
L 286.13357 132.6888 
L 286.506976 132.245278 
L 286.880383 132.40051 
L 287.253789 132.378337 
L 287.627196 132.95491 
L 288.000602 132.844031 
L 288.374009 130.626431 
L 288.747415 129.783741 
L 289.120822 129.828094 
L 289.494228 130.449028 
L 290.241041 132.644447 
L 290.614448 133.221028 
L 290.987854 132.932737 
L 291.361261 131.979169 
L 291.734667 132.444863 
L 292.108074 132.710972 
L 292.48148 132.245278 
L 292.854887 132.1344 
L 293.228293 131.402588 
L 293.6017 131.269537 
L 293.975106 130.537725 
L 294.348513 130.803843 
L 294.721919 129.62851 
L 295.095326 130.293788 
L 295.468732 129.606337 
L 295.842139 129.739388 
L 296.215545 130.094212 
L 296.588952 132.245278 
L 296.962358 132.489216 
L 297.335765 131.602172 
L 298.082578 130.981247 
L 298.455984 130.18291 
L 298.829391 129.983325 
L 299.202797 130.315969 
L 299.576204 130.426847 
L 299.94961 130.404675 
L 300.696423 131.557828 
L 301.443236 128.763647 
L 301.816643 128.386659 
L 302.190049 128.674941 
L 302.563456 128.785828 
L 303.310269 128.719294 
L 303.683675 128.719294 
L 304.057082 127.920957 
L 304.430488 127.388737 
L 304.803895 127.189153 
L 305.177301 128.054016 
L 305.924114 128.297953 
L 306.297521 129.229341 
L 306.670927 128.763647 
L 307.044334 128.497537 
L 307.41774 127.98749 
L 307.791147 128.985412 
L 308.911366 128.475357 
L 309.284773 126.767812 
L 309.658179 126.834337 
L 310.031586 127.033922 
L 311.525212 125.304188 
L 311.898618 125.792063 
L 312.645431 125.703357 
L 313.018838 126.146878 
L 313.392244 125.74771 
L 313.765651 124.217569 
L 314.139057 124.284094 
L 314.512464 123.729694 
L 314.88587 123.8184 
L 315.259277 123.419231 
L 315.632683 124.017984 
L 316.00609 123.352706 
L 316.379496 123.685341 
L 316.752903 123.640988 
L 317.126309 125.614659 
L 317.499716 125.437247 
L 317.873122 126.013828 
L 318.246529 126.080353 
L 318.619935 125.969475 
L 319.366748 126.679106 
L 319.740155 126.523875 
L 320.486968 127.211325 
L 321.233781 125.947294 
L 321.980594 125.858588 
L 322.354 125.570306 
L 322.727407 126.169059 
L 323.100813 126.036 
L 323.47422 124.971553 
L 323.847626 126.87869 
L 324.221033 126.900863 
L 324.594439 126.501694 
L 324.967846 125.880769 
L 325.341252 126.036 
L 325.714659 126.85651 
L 326.088065 128.2536 
L 326.834878 127.255678 
L 327.208285 127.011741 
L 327.581691 127.322212 
L 327.955098 126.85651 
L 328.328504 126.900863 
L 328.701911 126.679106 
L 329.075317 126.102525 
L 329.82213 125.525953 
L 330.568943 125.259843 
L 330.94235 125.038078 
L 331.315756 124.993725 
L 331.689163 125.437247 
L 332.062569 125.392894 
L 332.809382 124.905028 
L 333.182789 124.705443 
L 333.929601 125.038078 
L 334.303008 124.705443 
L 334.676414 124.195388 
L 335.049821 124.550212 
L 335.796634 123.241828 
L 336.17004 115.23629 
L 336.543447 117.187772 
L 336.916853 112.375584 
L 337.29026 116.212031 
L 337.663666 115.591106 
L 338.410479 110.601506 
L 338.783886 114.327075 
L 339.157292 120.78029 
L 339.530699 114.060957 
L 340.277512 109.337475 
L 340.650918 108.361725 
L 341.024325 108.339553 
L 341.397731 108.827428 
L 341.771138 104.613984 
L 342.144544 104.791388 
L 342.517951 106.698525 
L 342.891357 105.634087 
L 343.264764 106.698525 
L 343.63817 103.505176 
L 344.011577 103.815655 
L 344.384983 109.115718 
L 344.75839 103.926525 
L 345.131796 102.618149 
L 345.505203 103.704769 
L 345.878609 103.904345 
L 346.252016 102.218981 
L 346.625422 101.553694 
L 346.998829 101.531513 
L 347.372235 102.817725 
L 347.745642 101.797631 
L 348.492455 95.854463 
L 348.865861 95.854463 
L 349.239268 89.489945 
L 349.612674 89.135137 
L 349.986081 89.356894 
L 350.732894 83.945945 
L 351.1063 83.480251 
L 351.479707 85.476094 
L 351.853113 82.260581 
L 352.22652 81.861412 
L 352.599926 83.280675 
L 352.973333 76.916157 
L 353.346739 78.002776 
L 353.720146 76.317412 
L 354.093552 73.567576 
L 354.466959 67.934887 
L 354.840365 58.243969 
L 355.213772 57.534337 
L 355.587178 59.419294 
L 355.960585 61.925176 
L 356.333991 62.146949 
L 356.707398 59.131012 
L 357.080804 60.905099 
L 357.454211 57.002101 
L 357.827617 58.576612 
L 358.201024 56.514226 
L 358.57443 58.598776 
L 358.947837 52.500376 
L 359.321243 52.988251 
L 359.69465 55.671561 
L 360.068056 54.340988 
L 360.441463 66.249489 
L 360.814869 60.284174 
L 361.188276 63.322275 
L 361.561682 57.800439 
L 361.935089 59.707576 
L 362.681902 52.322964 
L 363.055308 52.145552 
L 363.428715 56.447701 
L 363.802121 56.336848 
L 364.175528 57.756111 
L 364.548934 57.933489 
L 364.922341 55.915499 
L 365.295747 55.982024 
L 365.669154 59.086651 
L 366.04256 58.377036 
L 366.789373 58.177426 
L 367.16278 56.292487 
L 367.536186 55.494149 
L 367.909593 56.048549 
L 368.282999 54.984111 
L 368.656406 56.026352 
L 369.029812 54.740174 
L 369.403219 60.439388 
L 369.776625 58.088737 
L 370.150032 57.889161 
L 370.523438 56.935576 
L 371.270251 60.306337 
L 371.643658 56.558588 
L 372.017064 57.933489 
L 372.390471 56.425537 
L 372.763877 59.131012 
L 373.137284 59.330588 
L 373.51069 55.361099 
L 373.884097 55.272376 
L 374.257503 56.048549 
L 374.63091 55.294574 
L 375.004316 52.145552 
L 375.751129 54.917552 
L 376.124536 55.6272 
L 376.497942 53.786588 
L 376.871349 51.280689 
L 377.244755 56.691639 
L 377.618162 55.671561 
L 377.991568 52.345161 
L 378.364975 51.923812 
L 378.738381 50.992424 
L 379.858601 56.425537 
L 380.232007 52.966087 
L 380.605414 54.207937 
L 380.97882 53.875311 
L 381.352227 56.558588 
L 381.725633 57.977851 
L 382.09904 53.320911 
L 382.472446 55.228048 
L 382.845853 56.026352 
L 383.219259 58.199624 
L 383.592666 56.469899 
L 383.966072 53.143499 
L 384.339479 54.740157 
L 384.712885 53.210024 
L 385.086292 56.514243 
L 385.833105 48.020831 
L 386.206511 56.381176 
L 386.579918 60.439388 
L 386.953324 60.594619 
L 387.700137 57.046463 
L 388.073544 59.264063 
L 388.44695 65.185059 
L 388.820357 59.530172 
L 389.193763 61.215553 
L 389.56717 63.65491 
L 389.940576 65.074181 
L 390.313983 65.584219 
L 390.687389 66.914784 
L 391.060796 66.493443 
L 391.434202 64.098431 
L 391.807609 57.489984 
L 392.181015 61.925184 
L 392.554422 59.641059 
L 392.927828 63.033984 
L 393.301235 64.031906 
L 393.674641 63.699263 
L 394.048048 64.697184 
L 394.421454 64.652831 
L 394.794861 63.854494 
L 395.168267 59.24189 
L 395.541674 63.078337 
L 395.91508 60.483741 
L 396.288487 59.175357 
L 396.661893 67.624416 
L 397.0353 67.247428 
L 397.408706 66.604322 
L 397.782113 66.582141 
L 398.155519 67.868353 
L 398.528926 66.848251 
L 398.528926 66.848251 
" clip-path="url(#p91bf2ac096)" style="fill: none; stroke: #ff0000; stroke-width: 0.8; stroke-linecap: square"/>
   </g>
   <g id="line2d_44">
    <path d="M 121.834711 223.056 
L 125.475424 222.285403 
L 129.116137 221.709267 
L 132.756851 221.332444 
L 136.397564 221.01763 
L 140.038278 219.983366 
L 143.678991 219.605274 
L 147.319704 218.066074 
L 150.960418 217.658711 
L 154.601131 215.897534 
L 158.241844 214.465662 
L 161.882558 212.960613 
L 165.523271 211.665344 
L 169.163984 206.862355 
L 172.804698 204.101063 
L 176.445411 201.893496 
L 180.086124 199.049268 
L 183.726838 197.119779 
L 187.367551 194.39264 
L 191.008264 191.836248 
L 194.648978 190.655626 
L 198.289691 185.735552 
L 201.930405 183.193799 
L 205.571118 179.798286 
L 209.211831 178.705483 
L 212.852545 175.392905 
L 216.493258 171.736393 
L 220.133971 169.116584 
L 223.774685 166.357733 
L 227.415398 165.042945 
L 231.056111 161.335201 
L 234.696825 159.898456 
L 238.337538 155.568693 
L 241.978251 151.543843 
L 245.618965 147.806829 
L 249.259678 143.611232 
L 252.900391 140.086437 
L 256.541105 136.551889 
L 260.181818 131.995265 
L 263.822532 130.134083 
L 267.463245 127.548421 
L 271.103958 121.601399 
L 274.744672 117.659484 
L 278.385385 114.744514 
L 282.026098 110.131799 
L 285.666812 107.387583 
L 289.307525 103.392004 
L 292.948238 99.496429 
L 296.588952 95.639892 
L 300.229665 91.215007 
L 303.870378 87.49507 
L 307.511092 85.485072 
L 311.151805 82.848186 
L 314.792518 78.269625 
L 318.433232 77.779323 
L 322.073945 75.108283 
L 325.714659 71.034644 
L 329.355372 69.583256 
L 332.996085 68.212369 
L 336.636799 65.443766 
L 340.277512 62.631242 
L 343.918225 59.530898 
L 347.558939 56.530558 
L 351.199652 54.879145 
L 354.840365 53.378968 
L 358.481079 53.757072 
L 362.121792 54.798644 
L 365.762505 53.642417 
L 369.403219 53.749747 
L 373.043932 52.3008 
L 376.684645 52.393495 
L 380.325359 54.188818 
L 383.966072 60.816415 
L 387.606786 63.260586 
L 391.247499 64.897364 
L 394.888212 65.112024 
L 398.528926 68.102612 
" clip-path="url(#p91bf2ac096)" style="fill: none; stroke: #0000ff; stroke-width: 0.8; stroke-linecap: square"/>
   </g>
   <g id="line2d_45">
    <path d="M 121.834711 223.056 
L 123.996384 221.185417 
L 126.158058 216.830715 
L 128.319731 215.825918 
L 130.481405 220.879918 
L 132.643079 221.709702 
L 134.804752 220.517897 
L 136.966426 215.913289 
L 139.128099 212.198456 
L 141.289773 217.889613 
L 143.451446 220.216409 
L 145.61312 217.600953 
L 147.774793 218.358596 
L 152.09814 222.26218 
L 154.259814 219.676022 
L 156.421488 211.471817 
L 158.583161 213.681169 
L 160.744835 212.560807 
L 162.906508 207.455903 
L 165.068182 209.214719 
L 167.229855 217.225755 
L 169.391529 216.945369 
L 171.553202 218.305057 
L 173.714876 220.427987 
L 175.87655 217.344439 
L 178.038223 203.945469 
L 180.199897 203.428673 
L 182.36157 205.315359 
L 184.523244 212.159101 
L 186.684917 212.442936 
L 188.846591 216.071503 
L 191.008264 213.782336 
L 193.169938 215.679892 
L 195.331612 206.563086 
L 197.493285 204.425158 
L 199.654959 191.507804 
L 201.816632 176.964435 
L 203.978306 160.866163 
L 206.139979 149.064347 
L 208.301653 138.517533 
L 210.463326 135.268321 
L 212.625 133.798988 
L 214.786674 137.809399 
L 216.948347 138.851807 
L 219.110021 125.089958 
L 221.271694 125.022404 
L 223.433368 115.677559 
L 225.595041 109.097892 
L 229.918388 96.690654 
L 232.080062 89.189695 
L 234.241736 82.266843 
L 236.403409 80.694948 
L 238.565083 74.68687 
L 240.726756 75.804616 
L 242.88843 72.778179 
L 245.050103 67.343718 
L 247.211777 65.353268 
L 249.37345 63.873709 
L 251.535124 61.176474 
L 253.696798 64.310582 
L 255.858471 65.928781 
L 258.020145 64.254328 
L 260.181818 61.401175 
L 262.343492 57.834256 
L 264.505165 54.951609 
L 266.666839 54.773796 
L 268.828512 55.12613 
L 270.990186 57.339548 
L 273.15186 56.321254 
L 275.313533 53.883512 
L 277.475207 52.3008 
L 279.63688 53.617754 
L 283.960227 59.444546 
L 286.121901 83.610504 
L 288.283574 76.784823 
L 290.445248 83.764769 
L 292.606921 78.575633 
L 294.768595 83.175084 
L 296.930269 81.243304 
L 299.091942 70.725643 
L 301.253616 72.766134 
L 303.415289 82.482767 
L 305.576963 74.05557 
L 307.738636 74.51766 
L 309.90031 66.544107 
L 312.061983 64.220278 
L 314.223657 72.999836 
L 316.385331 71.306943 
L 318.547004 70.083693 
L 320.708678 87.641125 
L 322.870351 73.779636 
L 325.032025 81.498708 
L 327.193698 77.444052 
L 329.355372 80.233398 
L 331.517045 86.536662 
L 333.678719 81.513526 
L 335.840393 83.436399 
L 340.16374 75.496077 
L 342.325413 79.810804 
L 344.487087 85.857602 
L 346.64876 77.237842 
L 348.810434 79.187718 
L 350.972107 75.006712 
L 353.133781 73.574145 
L 355.295455 70.818297 
L 357.457128 69.905599 
L 359.618802 68.772935 
L 361.780475 77.566632 
L 363.942149 78.995079 
L 366.103822 80.718748 
L 368.265496 87.74049 
L 370.427169 84.608013 
L 372.588843 85.253518 
L 374.750517 79.737089 
L 376.91219 68.036392 
L 379.073864 68.997263 
L 381.235537 62.831496 
L 383.397211 61.196613 
L 385.558884 56.171438 
L 387.720558 67.900927 
L 389.882231 72.291132 
L 392.043905 86.006757 
L 394.205579 88.431665 
L 396.367252 89.869142 
L 398.528926 81.282981 
L 398.528926 81.282981 
" clip-path="url(#p91bf2ac096)" style="fill: none; stroke: #008000; stroke-width: 0.8; stroke-linecap: square"/>
   </g>
   <g id="patch_3">
    <path d="M 108 256.32 
L 108 34.56 
" style="fill: none; stroke: #000000; stroke-width: 0.8; stroke-linejoin: miter; stroke-linecap: square"/>
   </g>
   <g id="patch_4">
    <path d="M 412.363636 256.32 
L 412.363636 34.56 
" style="fill: none; stroke: #000000; stroke-width: 0.8; stroke-linejoin: miter; stroke-linecap: square"/>
   </g>
   <g id="patch_5">
    <path d="M 108 256.32 
L 412.363636 256.32 
" style="fill: none; stroke: #000000; stroke-width: 0.8; stroke-linejoin: miter; stroke-linecap: square"/>
   </g>
   <g id="patch_6">
    <path d="M 108 34.56 
L 412.363636 34.56 
" style="fill: none; stroke: #000000; stroke-width: 0.8; stroke-linejoin: miter; stroke-linecap: square"/>
   </g>
   <g id="text_15">
    <!-- Average Episode Reward -->
    <g transform="translate(185.818381 28.56)scale(0.12 -0.12)">
     <defs>
      <path id="DejaVuSans-41" d="M 2188 4044 
L 1331 1722 
L 3047 1722 
L 2188 4044 
z
M 1831 4666 
L 2547 4666 
L 4325 0 
L 3669 0 
L 3244 1197 
L 1141 1197 
L 716 0 
L 50 0 
L 1831 4666 
z
" transform="scale(0.015625)"/>
      <path id="DejaVuSans-76" d="M 191 3500 
L 800 3500 
L 1894 563 
L 2988 3500 
L 3597 3500 
L 2284 0 
L 1503 0 
L 191 3500 
z
" transform="scale(0.015625)"/>
      <path id="DejaVuSans-67" d="M 2906 1791 
Q 2906 2416 2648 2759 
Q 2391 3103 1925 3103 
Q 1463 3103 1205 2759 
Q 947 2416 947 1791 
Q 947 1169 1205 825 
Q 1463 481 1925 481 
Q 2391 481 2648 825 
Q 2906 1169 2906 1791 
z
M 3481 434 
Q 3481 -459 3084 -895 
Q 2688 -1331 1869 -1331 
Q 1566 -1331 1297 -1286 
Q 1028 -1241 775 -1147 
L 775 -588 
Q 1028 -725 1275 -790 
Q 1522 -856 1778 -856 
Q 2344 -856 2625 -561 
Q 2906 -266 2906 331 
L 2906 616 
Q 2728 306 2450 153 
Q 2172 0 1784 0 
Q 1141 0 747 490 
Q 353 981 353 1791 
Q 353 2603 747 3093 
Q 1141 3584 1784 3584 
Q 2172 3584 2450 3431 
Q 2728 3278 2906 2969 
L 2906 3500 
L 3481 3500 
L 3481 434 
z
" transform="scale(0.015625)"/>
      <path id="DejaVuSans-45" d="M 628 4666 
L 3578 4666 
L 3578 4134 
L 1259 4134 
L 1259 2753 
L 3481 2753 
L 3481 2222 
L 1259 2222 
L 1259 531 
L 3634 531 
L 3634 0 
L 628 0 
L 628 4666 
z
" transform="scale(0.015625)"/>
      <path id="DejaVuSans-52" d="M 2841 2188 
Q 3044 2119 3236 1894 
Q 3428 1669 3622 1275 
L 4263 0 
L 3584 0 
L 2988 1197 
Q 2756 1666 2539 1819 
Q 2322 1972 1947 1972 
L 1259 1972 
L 1259 0 
L 628 0 
L 628 4666 
L 2053 4666 
Q 2853 4666 3247 4331 
Q 3641 3997 3641 3322 
Q 3641 2881 3436 2590 
Q 3231 2300 2841 2188 
z
M 1259 4147 
L 1259 2491 
L 2053 2491 
Q 2509 2491 2742 2702 
Q 2975 2913 2975 3322 
Q 2975 3731 2742 3939 
Q 2509 4147 2053 4147 
L 1259 4147 
z
" transform="scale(0.015625)"/>
     </defs>
     <use xlink:href="#DejaVuSans-41"/>
     <use xlink:href="#DejaVuSans-76" x="62.533203"/>
     <use xlink:href="#DejaVuSans-65" x="121.712891"/>
     <use xlink:href="#DejaVuSans-72" x="183.236328"/>
     <use xlink:href="#DejaVuSans-61" x="224.349609"/>
     <use xlink:href="#DejaVuSans-67" x="285.628906"/>
     <use xlink:href="#DejaVuSans-65" x="349.105469"/>
     <use xlink:href="#DejaVuSans-20" x="410.628906"/>
     <use xlink:href="#DejaVuSans-45" x="442.416016"/>
     <use xlink:href="#DejaVuSans-70" x="505.599609"/>
     <use xlink:href="#DejaVuSans-69" x="569.076172"/>
     <use xlink:href="#DejaVuSans-73" x="596.859375"/>
     <use xlink:href="#DejaVuSans-6f" x="648.958984"/>
     <use xlink:href="#DejaVuSans-64" x="710.140625"/>
     <use xlink:href="#DejaVuSans-65" x="773.617188"/>
     <use xlink:href="#DejaVuSans-20" x="835.140625"/>
     <use xlink:href="#DejaVuSans-52" x="866.927734"/>
     <use xlink:href="#DejaVuSans-65" x="931.910156"/>
     <use xlink:href="#DejaVuSans-77" x="993.433594"/>
     <use xlink:href="#DejaVuSans-61" x="1075.220703"/>
     <use xlink:href="#DejaVuSans-72" x="1136.5"/>
     <use xlink:href="#DejaVuSans-64" x="1175.863281"/>
    </g>
   </g>
   <g id="legend_1">
    <g id="patch_7">
     <path d="M 115 86.594375 
L 177.845313 86.594375 
Q 179.845313 86.594375 179.845313 84.594375 
L 179.845313 41.56 
Q 179.845313 39.56 177.845313 39.56 
L 115 39.56 
Q 113 39.56 113 41.56 
L 113 84.594375 
Q 113 86.594375 115 86.594375 
z
" style="fill: #ffffff; opacity: 0.8; stroke: #cccccc; stroke-linejoin: miter"/>
    </g>
    <g id="line2d_46">
     <path d="M 117 47.658438 
L 127 47.658438 
L 137 47.658438 
" style="fill: none; stroke: #ff0000; stroke-width: 0.8; stroke-linecap: square"/>
    </g>
    <g id="text_16">
     <!-- m=15 -->
     <g transform="translate(145 51.158438)scale(0.1 -0.1)">
      <defs>
       <path id="DejaVuSans-6d" d="M 3328 2828 
Q 3544 3216 3844 3400 
Q 4144 3584 4550 3584 
Q 5097 3584 5394 3201 
Q 5691 2819 5691 2113 
L 5691 0 
L 5113 0 
L 5113 2094 
Q 5113 2597 4934 2840 
Q 4756 3084 4391 3084 
Q 3944 3084 3684 2787 
Q 3425 2491 3425 1978 
L 3425 0 
L 2847 0 
L 2847 2094 
Q 2847 2600 2669 2842 
Q 2491 3084 2119 3084 
Q 1678 3084 1418 2786 
Q 1159 2488 1159 1978 
L 1159 0 
L 581 0 
L 581 3500 
L 1159 3500 
L 1159 2956 
Q 1356 3278 1631 3431 
Q 1906 3584 2284 3584 
Q 2666 3584 2933 3390 
Q 3200 3197 3328 2828 
z
" transform="scale(0.015625)"/>
       <path id="DejaVuSans-3d" d="M 678 2906 
L 4684 2906 
L 4684 2381 
L 678 2381 
L 678 2906 
z
M 678 1631 
L 4684 1631 
L 4684 1100 
L 678 1100 
L 678 1631 
z
" transform="scale(0.015625)"/>
       <path id="DejaVuSans-35" d="M 691 4666 
L 3169 4666 
L 3169 4134 
L 1269 4134 
L 1269 2991 
Q 1406 3038 1543 3061 
Q 1681 3084 1819 3084 
Q 2600 3084 3056 2656 
Q 3513 2228 3513 1497 
Q 3513 744 3044 326 
Q 2575 -91 1722 -91 
Q 1428 -91 1123 -41 
Q 819 9 494 109 
L 494 744 
Q 775 591 1075 516 
Q 1375 441 1709 441 
Q 2250 441 2565 725 
Q 2881 1009 2881 1497 
Q 2881 1984 2565 2268 
Q 2250 2553 1709 2553 
Q 1456 2553 1204 2497 
Q 953 2441 691 2322 
L 691 4666 
z
" transform="scale(0.015625)"/>
      </defs>
      <use xlink:href="#DejaVuSans-6d"/>
      <use xlink:href="#DejaVuSans-3d" x="97.412109"/>
      <use xlink:href="#DejaVuSans-31" x="181.201172"/>
      <use xlink:href="#DejaVuSans-35" x="244.824219"/>
     </g>
    </g>
    <g id="line2d_47">
     <path d="M 117 62.336563 
L 127 62.336563 
L 137 62.336563 
" style="fill: none; stroke: #0000ff; stroke-width: 0.8; stroke-linecap: square"/>
    </g>
    <g id="text_17">
     <!-- m=10 -->
     <g transform="translate(145 65.836563)scale(0.1 -0.1)">
      <use xlink:href="#DejaVuSans-6d"/>
      <use xlink:href="#DejaVuSans-3d" x="97.412109"/>
      <use xlink:href="#DejaVuSans-31" x="181.201172"/>
      <use xlink:href="#DejaVuSans-30" x="244.824219"/>
     </g>
    </g>
    <g id="line2d_48">
     <path d="M 117 77.014688 
L 127 77.014688 
L 137 77.014688 
" style="fill: none; stroke: #008000; stroke-width: 0.8; stroke-linecap: square"/>
    </g>
    <g id="text_18">
     <!-- m=5 -->
     <g transform="translate(145 80.514688)scale(0.1 -0.1)">
      <use xlink:href="#DejaVuSans-6d"/>
      <use xlink:href="#DejaVuSans-3d" x="97.412109"/>
      <use xlink:href="#DejaVuSans-35" x="181.201172"/>
     </g>
    </g>
   </g>
  </g>
  <g id="axes_2">
   <g id="patch_8">
    <path d="M 473.236364 256.32 
L 777.6 256.32 
L 777.6 34.56 
L 473.236364 34.56 
z
" style="fill: #ffffff"/>
   </g>
   <g id="matplotlib.axis_3">
    <g id="xtick_22">
     <g id="line2d_49">
      <g>
       <use xlink:href="#m1de3be7006" x="487.043402" y="256.32" style="stroke: #000000; stroke-width: 0.8"/>
      </g>
     </g>
     <g id="text_19">
      <!-- 0 -->
      <g transform="translate(483.862152 270.918437)scale(0.1 -0.1)">
       <use xlink:href="#DejaVuSans-30"/>
      </g>
     </g>
    </g>
    <g id="xtick_23">
     <g id="line2d_50">
      <g>
       <use xlink:href="#m1de3be7006" x="542.38778" y="256.32" style="stroke: #000000; stroke-width: 0.8"/>
      </g>
     </g>
     <g id="text_20">
      <!-- 2 -->
      <g transform="translate(539.20653 270.918437)scale(0.1 -0.1)">
       <use xlink:href="#DejaVuSans-32"/>
      </g>
     </g>
    </g>
    <g id="xtick_24">
     <g id="line2d_51">
      <g>
       <use xlink:href="#m1de3be7006" x="597.732157" y="256.32" style="stroke: #000000; stroke-width: 0.8"/>
      </g>
     </g>
     <g id="text_21">
      <!-- 4 -->
      <g transform="translate(594.550907 270.918437)scale(0.1 -0.1)">
       <use xlink:href="#DejaVuSans-34"/>
      </g>
     </g>
    </g>
    <g id="xtick_25">
     <g id="line2d_52">
      <g>
       <use xlink:href="#m1de3be7006" x="653.076534" y="256.32" style="stroke: #000000; stroke-width: 0.8"/>
      </g>
     </g>
     <g id="text_22">
      <!-- 6 -->
      <g transform="translate(649.895284 270.918437)scale(0.1 -0.1)">
       <use xlink:href="#DejaVuSans-36"/>
      </g>
     </g>
    </g>
    <g id="xtick_26">
     <g id="line2d_53">
      <g>
       <use xlink:href="#m1de3be7006" x="708.420912" y="256.32" style="stroke: #000000; stroke-width: 0.8"/>
      </g>
     </g>
     <g id="text_23">
      <!-- 8 -->
      <g transform="translate(705.239662 270.918437)scale(0.1 -0.1)">
       <use xlink:href="#DejaVuSans-38"/>
      </g>
     </g>
    </g>
    <g id="xtick_27">
     <g id="line2d_54">
      <g>
       <use xlink:href="#m1de3be7006" x="763.765289" y="256.32" style="stroke: #000000; stroke-width: 0.8"/>
      </g>
     </g>
     <g id="text_24">
      <!-- 10 -->
      <g transform="translate(757.402789 270.918437)scale(0.1 -0.1)">
       <use xlink:href="#DejaVuSans-31"/>
       <use xlink:href="#DejaVuSans-30" x="63.623047"/>
      </g>
     </g>
    </g>
    <g id="xtick_28">
     <g id="line2d_55">
      <g>
       <use xlink:href="#mea57cb763c" x="500.879497" y="256.32" style="stroke: #000000; stroke-width: 0.6"/>
      </g>
     </g>
    </g>
    <g id="xtick_29">
     <g id="line2d_56">
      <g>
       <use xlink:href="#mea57cb763c" x="514.715591" y="256.32" style="stroke: #000000; stroke-width: 0.6"/>
      </g>
     </g>
    </g>
    <g id="xtick_30">
     <g id="line2d_57">
      <g>
       <use xlink:href="#mea57cb763c" x="528.551685" y="256.32" style="stroke: #000000; stroke-width: 0.6"/>
      </g>
     </g>
    </g>
    <g id="xtick_31">
     <g id="line2d_58">
      <g>
       <use xlink:href="#mea57cb763c" x="556.223874" y="256.32" style="stroke: #000000; stroke-width: 0.6"/>
      </g>
     </g>
    </g>
    <g id="xtick_32">
     <g id="line2d_59">
      <g>
       <use xlink:href="#mea57cb763c" x="570.059968" y="256.32" style="stroke: #000000; stroke-width: 0.6"/>
      </g>
     </g>
    </g>
    <g id="xtick_33">
     <g id="line2d_60">
      <g>
       <use xlink:href="#mea57cb763c" x="583.896063" y="256.32" style="stroke: #000000; stroke-width: 0.6"/>
      </g>
     </g>
    </g>
    <g id="xtick_34">
     <g id="line2d_61">
      <g>
       <use xlink:href="#mea57cb763c" x="611.568251" y="256.32" style="stroke: #000000; stroke-width: 0.6"/>
      </g>
     </g>
    </g>
    <g id="xtick_35">
     <g id="line2d_62">
      <g>
       <use xlink:href="#mea57cb763c" x="625.404346" y="256.32" style="stroke: #000000; stroke-width: 0.6"/>
      </g>
     </g>
    </g>
    <g id="xtick_36">
     <g id="line2d_63">
      <g>
       <use xlink:href="#mea57cb763c" x="639.24044" y="256.32" style="stroke: #000000; stroke-width: 0.6"/>
      </g>
     </g>
    </g>
    <g id="xtick_37">
     <g id="line2d_64">
      <g>
       <use xlink:href="#mea57cb763c" x="666.912629" y="256.32" style="stroke: #000000; stroke-width: 0.6"/>
      </g>
     </g>
    </g>
    <g id="xtick_38">
     <g id="line2d_65">
      <g>
       <use xlink:href="#mea57cb763c" x="680.748723" y="256.32" style="stroke: #000000; stroke-width: 0.6"/>
      </g>
     </g>
    </g>
    <g id="xtick_39">
     <g id="line2d_66">
      <g>
       <use xlink:href="#mea57cb763c" x="694.584817" y="256.32" style="stroke: #000000; stroke-width: 0.6"/>
      </g>
     </g>
    </g>
    <g id="xtick_40">
     <g id="line2d_67">
      <g>
       <use xlink:href="#mea57cb763c" x="722.257006" y="256.32" style="stroke: #000000; stroke-width: 0.6"/>
      </g>
     </g>
    </g>
    <g id="xtick_41">
     <g id="line2d_68">
      <g>
       <use xlink:href="#mea57cb763c" x="736.093101" y="256.32" style="stroke: #000000; stroke-width: 0.6"/>
      </g>
     </g>
    </g>
    <g id="xtick_42">
     <g id="line2d_69">
      <g>
       <use xlink:href="#mea57cb763c" x="749.929195" y="256.32" style="stroke: #000000; stroke-width: 0.6"/>
      </g>
     </g>
    </g>
    <g id="text_25">
     <!-- episode(x1k) -->
     <g transform="translate(712.615625 284.596563)scale(0.1 -0.1)">
      <use xlink:href="#DejaVuSans-65"/>
      <use xlink:href="#DejaVuSans-70" x="61.523438"/>
      <use xlink:href="#DejaVuSans-69" x="125"/>
      <use xlink:href="#DejaVuSans-73" x="152.783203"/>
      <use xlink:href="#DejaVuSans-6f" x="204.882812"/>
      <use xlink:href="#DejaVuSans-64" x="266.064453"/>
      <use xlink:href="#DejaVuSans-65" x="329.541016"/>
      <use xlink:href="#DejaVuSans-28" x="391.064453"/>
      <use xlink:href="#DejaVuSans-78" x="430.078125"/>
      <use xlink:href="#DejaVuSans-31" x="489.257812"/>
      <use xlink:href="#DejaVuSans-6b" x="552.880859"/>
      <use xlink:href="#DejaVuSans-29" x="610.791016"/>
     </g>
    </g>
   </g>
   <g id="matplotlib.axis_4">
    <g id="ytick_22">
     <g id="line2d_70">
      <g>
       <use xlink:href="#m511b0a71da" x="473.236364" y="256.32" style="stroke: #000000; stroke-width: 0.8"/>
      </g>
     </g>
     <g id="text_26">
      <!-- 0.0 -->
      <g transform="translate(450.333239 260.119219)scale(0.1 -0.1)">
       <defs>
        <path id="DejaVuSans-2e" d="M 684 794 
L 1344 794 
L 1344 0 
L 684 0 
L 684 794 
z
" transform="scale(0.015625)"/>
       </defs>
       <use xlink:href="#DejaVuSans-30"/>
       <use xlink:href="#DejaVuSans-2e" x="63.623047"/>
       <use xlink:href="#DejaVuSans-30" x="95.410156"/>
      </g>
     </g>
    </g>
    <g id="ytick_23">
     <g id="line2d_71">
      <g>
       <use xlink:href="#m511b0a71da" x="473.236364" y="219.36" style="stroke: #000000; stroke-width: 0.8"/>
      </g>
     </g>
     <g id="text_27">
      <!-- 0.5 -->
      <g transform="translate(450.333239 223.159219)scale(0.1 -0.1)">
       <use xlink:href="#DejaVuSans-30"/>
       <use xlink:href="#DejaVuSans-2e" x="63.623047"/>
       <use xlink:href="#DejaVuSans-35" x="95.410156"/>
      </g>
     </g>
    </g>
    <g id="ytick_24">
     <g id="line2d_72">
      <g>
       <use xlink:href="#m511b0a71da" x="473.236364" y="182.4" style="stroke: #000000; stroke-width: 0.8"/>
      </g>
     </g>
     <g id="text_28">
      <!-- 1.0 -->
      <g transform="translate(450.333239 186.199219)scale(0.1 -0.1)">
       <use xlink:href="#DejaVuSans-31"/>
       <use xlink:href="#DejaVuSans-2e" x="63.623047"/>
       <use xlink:href="#DejaVuSans-30" x="95.410156"/>
      </g>
     </g>
    </g>
    <g id="ytick_25">
     <g id="line2d_73">
      <g>
       <use xlink:href="#m511b0a71da" x="473.236364" y="145.44" style="stroke: #000000; stroke-width: 0.8"/>
      </g>
     </g>
     <g id="text_29">
      <!-- 1.5 -->
      <g transform="translate(450.333239 149.239219)scale(0.1 -0.1)">
       <use xlink:href="#DejaVuSans-31"/>
       <use xlink:href="#DejaVuSans-2e" x="63.623047"/>
       <use xlink:href="#DejaVuSans-35" x="95.410156"/>
      </g>
     </g>
    </g>
    <g id="ytick_26">
     <g id="line2d_74">
      <g>
       <use xlink:href="#m511b0a71da" x="473.236364" y="108.48" style="stroke: #000000; stroke-width: 0.8"/>
      </g>
     </g>
     <g id="text_30">
      <!-- 2.0 -->
      <g transform="translate(450.333239 112.279219)scale(0.1 -0.1)">
       <use xlink:href="#DejaVuSans-32"/>
       <use xlink:href="#DejaVuSans-2e" x="63.623047"/>
       <use xlink:href="#DejaVuSans-30" x="95.410156"/>
      </g>
     </g>
    </g>
    <g id="ytick_27">
     <g id="line2d_75">
      <g>
       <use xlink:href="#m511b0a71da" x="473.236364" y="71.52" style="stroke: #000000; stroke-width: 0.8"/>
      </g>
     </g>
     <g id="text_31">
      <!-- 2.5 -->
      <g transform="translate(450.333239 75.319219)scale(0.1 -0.1)">
       <use xlink:href="#DejaVuSans-32"/>
       <use xlink:href="#DejaVuSans-2e" x="63.623047"/>
       <use xlink:href="#DejaVuSans-35" x="95.410156"/>
      </g>
     </g>
    </g>
    <g id="ytick_28">
     <g id="line2d_76">
      <g>
       <use xlink:href="#m511b0a71da" x="473.236364" y="34.56" style="stroke: #000000; stroke-width: 0.8"/>
      </g>
     </g>
     <g id="text_32">
      <!-- 3.0 -->
      <g transform="translate(450.333239 38.359219)scale(0.1 -0.1)">
       <defs>
        <path id="DejaVuSans-33" d="M 2597 2516 
Q 3050 2419 3304 2112 
Q 3559 1806 3559 1356 
Q 3559 666 3084 287 
Q 2609 -91 1734 -91 
Q 1441 -91 1130 -33 
Q 819 25 488 141 
L 488 750 
Q 750 597 1062 519 
Q 1375 441 1716 441 
Q 2309 441 2620 675 
Q 2931 909 2931 1356 
Q 2931 1769 2642 2001 
Q 2353 2234 1838 2234 
L 1294 2234 
L 1294 2753 
L 1863 2753 
Q 2328 2753 2575 2939 
Q 2822 3125 2822 3475 
Q 2822 3834 2567 4026 
Q 2313 4219 1838 4219 
Q 1578 4219 1281 4162 
Q 984 4106 628 3988 
L 628 4550 
Q 988 4650 1302 4700 
Q 1616 4750 1894 4750 
Q 2613 4750 3031 4423 
Q 3450 4097 3450 3541 
Q 3450 3153 3228 2886 
Q 3006 2619 2597 2516 
z
" transform="scale(0.015625)"/>
       </defs>
       <use xlink:href="#DejaVuSans-33"/>
       <use xlink:href="#DejaVuSans-2e" x="63.623047"/>
       <use xlink:href="#DejaVuSans-30" x="95.410156"/>
      </g>
     </g>
    </g>
    <g id="ytick_29">
     <g id="line2d_77">
      <g>
       <use xlink:href="#m92d91c51f7" x="473.236364" y="248.928" style="stroke: #000000; stroke-width: 0.6"/>
      </g>
     </g>
    </g>
    <g id="ytick_30">
     <g id="line2d_78">
      <g>
       <use xlink:href="#m92d91c51f7" x="473.236364" y="241.536" style="stroke: #000000; stroke-width: 0.6"/>
      </g>
     </g>
    </g>
    <g id="ytick_31">
     <g id="line2d_79">
      <g>
       <use xlink:href="#m92d91c51f7" x="473.236364" y="234.144" style="stroke: #000000; stroke-width: 0.6"/>
      </g>
     </g>
    </g>
    <g id="ytick_32">
     <g id="line2d_80">
      <g>
       <use xlink:href="#m92d91c51f7" x="473.236364" y="226.752" style="stroke: #000000; stroke-width: 0.6"/>
      </g>
     </g>
    </g>
    <g id="ytick_33">
     <g id="line2d_81">
      <g>
       <use xlink:href="#m92d91c51f7" x="473.236364" y="211.968" style="stroke: #000000; stroke-width: 0.6"/>
      </g>
     </g>
    </g>
    <g id="ytick_34">
     <g id="line2d_82">
      <g>
       <use xlink:href="#m92d91c51f7" x="473.236364" y="204.576" style="stroke: #000000; stroke-width: 0.6"/>
      </g>
     </g>
    </g>
    <g id="ytick_35">
     <g id="line2d_83">
      <g>
       <use xlink:href="#m92d91c51f7" x="473.236364" y="197.184" style="stroke: #000000; stroke-width: 0.6"/>
      </g>
     </g>
    </g>
    <g id="ytick_36">
     <g id="line2d_84">
      <g>
       <use xlink:href="#m92d91c51f7" x="473.236364" y="189.792" style="stroke: #000000; stroke-width: 0.6"/>
      </g>
     </g>
    </g>
    <g id="ytick_37">
     <g id="line2d_85">
      <g>
       <use xlink:href="#m92d91c51f7" x="473.236364" y="175.008" style="stroke: #000000; stroke-width: 0.6"/>
      </g>
     </g>
    </g>
    <g id="ytick_38">
     <g id="line2d_86">
      <g>
       <use xlink:href="#m92d91c51f7" x="473.236364" y="167.616" style="stroke: #000000; stroke-width: 0.6"/>
      </g>
     </g>
    </g>
    <g id="ytick_39">
     <g id="line2d_87">
      <g>
       <use xlink:href="#m92d91c51f7" x="473.236364" y="160.224" style="stroke: #000000; stroke-width: 0.6"/>
      </g>
     </g>
    </g>
    <g id="ytick_40">
     <g id="line2d_88">
      <g>
       <use xlink:href="#m92d91c51f7" x="473.236364" y="152.832" style="stroke: #000000; stroke-width: 0.6"/>
      </g>
     </g>
    </g>
    <g id="ytick_41">
     <g id="line2d_89">
      <g>
       <use xlink:href="#m92d91c51f7" x="473.236364" y="138.048" style="stroke: #000000; stroke-width: 0.6"/>
      </g>
     </g>
    </g>
    <g id="ytick_42">
     <g id="line2d_90">
      <g>
       <use xlink:href="#m92d91c51f7" x="473.236364" y="130.656" style="stroke: #000000; stroke-width: 0.6"/>
      </g>
     </g>
    </g>
    <g id="ytick_43">
     <g id="line2d_91">
      <g>
       <use xlink:href="#m92d91c51f7" x="473.236364" y="123.264" style="stroke: #000000; stroke-width: 0.6"/>
      </g>
     </g>
    </g>
    <g id="ytick_44">
     <g id="line2d_92">
      <g>
       <use xlink:href="#m92d91c51f7" x="473.236364" y="115.872" style="stroke: #000000; stroke-width: 0.6"/>
      </g>
     </g>
    </g>
    <g id="ytick_45">
     <g id="line2d_93">
      <g>
       <use xlink:href="#m92d91c51f7" x="473.236364" y="101.088" style="stroke: #000000; stroke-width: 0.6"/>
      </g>
     </g>
    </g>
    <g id="ytick_46">
     <g id="line2d_94">
      <g>
       <use xlink:href="#m92d91c51f7" x="473.236364" y="93.696" style="stroke: #000000; stroke-width: 0.6"/>
      </g>
     </g>
    </g>
    <g id="ytick_47">
     <g id="line2d_95">
      <g>
       <use xlink:href="#m92d91c51f7" x="473.236364" y="86.304" style="stroke: #000000; stroke-width: 0.6"/>
      </g>
     </g>
    </g>
    <g id="ytick_48">
     <g id="line2d_96">
      <g>
       <use xlink:href="#m92d91c51f7" x="473.236364" y="78.912" style="stroke: #000000; stroke-width: 0.6"/>
      </g>
     </g>
    </g>
    <g id="ytick_49">
     <g id="line2d_97">
      <g>
       <use xlink:href="#m92d91c51f7" x="473.236364" y="64.128" style="stroke: #000000; stroke-width: 0.6"/>
      </g>
     </g>
    </g>
    <g id="ytick_50">
     <g id="line2d_98">
      <g>
       <use xlink:href="#m92d91c51f7" x="473.236364" y="56.736" style="stroke: #000000; stroke-width: 0.6"/>
      </g>
     </g>
    </g>
    <g id="ytick_51">
     <g id="line2d_99">
      <g>
       <use xlink:href="#m92d91c51f7" x="473.236364" y="49.344" style="stroke: #000000; stroke-width: 0.6"/>
      </g>
     </g>
    </g>
    <g id="ytick_52">
     <g id="line2d_100">
      <g>
       <use xlink:href="#m92d91c51f7" x="473.236364" y="41.952" style="stroke: #000000; stroke-width: 0.6"/>
      </g>
     </g>
    </g>
    <g id="text_33">
     <!-- latency / 100 round (s) -->
     <g transform="translate(444.253551 148.50375)rotate(-90)scale(0.1 -0.1)">
      <defs>
       <path id="DejaVuSans-6c" d="M 603 4863 
L 1178 4863 
L 1178 0 
L 603 0 
L 603 4863 
z
" transform="scale(0.015625)"/>
       <path id="DejaVuSans-74" d="M 1172 4494 
L 1172 3500 
L 2356 3500 
L 2356 3053 
L 1172 3053 
L 1172 1153 
Q 1172 725 1289 603 
Q 1406 481 1766 481 
L 2356 481 
L 2356 0 
L 1766 0 
Q 1100 0 847 248 
Q 594 497 594 1153 
L 594 3053 
L 172 3053 
L 172 3500 
L 594 3500 
L 594 4494 
L 1172 4494 
z
" transform="scale(0.015625)"/>
       <path id="DejaVuSans-63" d="M 3122 3366 
L 3122 2828 
Q 2878 2963 2633 3030 
Q 2388 3097 2138 3097 
Q 1578 3097 1268 2742 
Q 959 2388 959 1747 
Q 959 1106 1268 751 
Q 1578 397 2138 397 
Q 2388 397 2633 464 
Q 2878 531 3122 666 
L 3122 134 
Q 2881 22 2623 -34 
Q 2366 -91 2075 -91 
Q 1284 -91 818 406 
Q 353 903 353 1747 
Q 353 2603 823 3093 
Q 1294 3584 2113 3584 
Q 2378 3584 2631 3529 
Q 2884 3475 3122 3366 
z
" transform="scale(0.015625)"/>
       <path id="DejaVuSans-79" d="M 2059 -325 
Q 1816 -950 1584 -1140 
Q 1353 -1331 966 -1331 
L 506 -1331 
L 506 -850 
L 844 -850 
Q 1081 -850 1212 -737 
Q 1344 -625 1503 -206 
L 1606 56 
L 191 3500 
L 800 3500 
L 1894 763 
L 2988 3500 
L 3597 3500 
L 2059 -325 
z
" transform="scale(0.015625)"/>
      </defs>
      <use xlink:href="#DejaVuSans-6c"/>
      <use xlink:href="#DejaVuSans-61" x="27.783203"/>
      <use xlink:href="#DejaVuSans-74" x="89.0625"/>
      <use xlink:href="#DejaVuSans-65" x="128.271484"/>
      <use xlink:href="#DejaVuSans-6e" x="189.794922"/>
      <use xlink:href="#DejaVuSans-63" x="253.173828"/>
      <use xlink:href="#DejaVuSans-79" x="308.154297"/>
      <use xlink:href="#DejaVuSans-20" x="367.333984"/>
      <use xlink:href="#DejaVuSans-2f" x="399.121094"/>
      <use xlink:href="#DejaVuSans-20" x="432.8125"/>
      <use xlink:href="#DejaVuSans-31" x="464.599609"/>
      <use xlink:href="#DejaVuSans-30" x="528.222656"/>
      <use xlink:href="#DejaVuSans-30" x="591.845703"/>
      <use xlink:href="#DejaVuSans-20" x="655.46875"/>
      <use xlink:href="#DejaVuSans-72" x="687.255859"/>
      <use xlink:href="#DejaVuSans-6f" x="726.119141"/>
      <use xlink:href="#DejaVuSans-75" x="787.300781"/>
      <use xlink:href="#DejaVuSans-6e" x="850.679688"/>
      <use xlink:href="#DejaVuSans-64" x="914.058594"/>
      <use xlink:href="#DejaVuSans-20" x="977.535156"/>
      <use xlink:href="#DejaVuSans-28" x="1009.322266"/>
      <use xlink:href="#DejaVuSans-73" x="1048.335938"/>
      <use xlink:href="#DejaVuSans-29" x="1100.435547"/>
     </g>
    </g>
   </g>
   <g id="line2d_101">
    <path d="M 487.071074 145.028076 
L 489.232748 157.759313 
L 491.394421 141.3744 
L 493.556095 156.292027 
L 495.717769 179.319583 
L 497.879442 197.219498 
L 500.041116 209.622573 
L 502.202789 219.967414 
L 504.364463 218.514659 
L 506.526136 222.553585 
L 508.68781 224.518087 
L 510.849483 225.530565 
L 513.011157 224.639418 
L 515.172831 225.963964 
L 517.334504 226.371742 
L 519.496178 225.988934 
L 521.657851 226.386743 
L 523.819525 226.26028 
L 536.789566 226.613115 
L 538.95124 226.540529 
L 541.112913 226.626769 
L 543.274587 226.541014 
L 545.43626 226.659252 
L 551.921281 226.460588 
L 554.082955 226.635018 
L 560.567975 226.630312 
L 564.891322 226.55837 
L 567.052996 226.55796 
L 569.214669 226.699848 
L 573.538017 226.585417 
L 582.184711 226.590903 
L 592.993079 226.584494 
L 603.801446 226.5909 
L 649.196591 226.594581 
L 651.358264 226.10959 
L 653.519938 226.687304 
L 655.681612 226.412832 
L 660.004959 226.710115 
L 664.328306 226.605567 
L 666.489979 226.63444 
L 668.651653 226.519596 
L 670.813326 226.626848 
L 672.975 226.55817 
L 679.460021 226.705457 
L 681.621694 226.547636 
L 683.783368 226.641307 
L 685.945041 226.577524 
L 690.268388 226.618567 
L 692.430062 226.60598 
L 694.591736 226.452084 
L 701.076756 226.601565 
L 750.795248 226.596573 
L 752.956921 226.752 
L 755.118595 226.536191 
L 761.603616 226.668732 
L 763.765289 226.589207 
L 763.765289 226.589207 
" clip-path="url(#p0ec0be1909)" style="fill: none; stroke: #008000; stroke-width: 0.8; stroke-linecap: square"/>
   </g>
   <g id="line2d_102">
    <path d="M 487.071074 84.5946 
L 488.323084 76.0245 
L 489.575094 76.0245 
L 490.827104 67.4544 
L 492.079114 67.4544 
L 493.331124 84.5946 
L 494.583135 93.1647 
L 497.087155 93.1647 
L 498.339165 84.5946 
L 524.631375 84.5946 
L 525.883385 93.1647 
L 532.143435 93.1647 
L 533.395445 101.7348 
L 535.899465 101.7348 
L 537.151475 110.3049 
L 539.655495 110.3049 
L 540.907505 118.875 
L 543.411525 118.875 
L 544.663535 127.4451 
L 548.419565 127.4451 
L 549.671575 136.0152 
L 554.679616 136.0152 
L 555.931626 144.5853 
L 563.443686 144.5853 
L 564.695696 153.1554 
L 574.711776 153.1554 
L 575.963786 161.7255 
L 587.231876 161.7255 
L 588.483886 170.2956 
L 604.760016 170.2956 
L 606.012026 178.8657 
L 629.800217 178.8657 
L 631.052227 187.4358 
L 669.864538 187.4358 
L 671.116548 196.0059 
L 742.481119 196.0059 
L 743.733129 204.576 
L 744.985139 204.576 
L 746.237149 196.0059 
L 763.765289 196.0059 
L 763.765289 196.0059 
" clip-path="url(#p0ec0be1909)" style="fill: none; stroke: #0000ff; stroke-width: 0.8; stroke-linecap: square"/>
   </g>
   <g id="line2d_103">
    <path d="M 487.071074 160.453807 
L 490.288449 139.609071 
L 493.505824 120.567577 
L 496.723198 103.706717 
L 499.940573 86.860304 
L 503.157947 64.69794 
L 506.375322 61.501394 
L 509.592697 66.971999 
L 512.810071 65.667336 
L 516.027446 68.870611 
L 519.24482 71.208767 
L 522.462195 75.702289 
L 525.679569 81.902393 
L 528.896944 81.87227 
L 532.114319 81.812887 
L 535.331693 87.09546 
L 538.549068 86.338906 
L 541.766442 85.441965 
L 544.983817 88.189909 
L 548.201192 89.117937 
L 551.418566 87.764529 
L 554.635941 85.047345 
L 557.853315 81.268828 
L 561.07069 83.716635 
L 564.288065 85.915398 
L 567.505439 84.312876 
L 570.722814 89.305083 
L 573.940188 88.172139 
L 577.157563 86.844236 
L 580.374938 86.264459 
L 583.592312 91.62452 
L 586.809687 91.770793 
L 590.027061 90.850238 
L 593.244436 88.40973 
L 596.46181 86.551162 
L 599.679185 88.711802 
L 602.89656 84.300582 
L 606.113934 81.307967 
L 609.331309 82.076112 
L 612.548683 82.135084 
L 615.766058 81.283203 
L 618.983433 84.044662 
L 622.200807 83.581893 
L 625.418182 87.70218 
L 628.635556 87.838041 
L 631.852931 89.007388 
L 635.070306 92.574281 
L 638.28768 97.764937 
L 641.505055 98.130763 
L 644.722429 100.303475 
L 647.939804 97.205362 
L 651.157179 96.243365 
L 654.374553 97.172771 
L 657.591928 93.025133 
L 660.809302 94.818642 
L 664.026677 93.686637 
L 667.244052 93.780661 
L 670.461426 91.4317 
L 673.678801 102.673411 
L 676.896175 100.914819 
L 680.11355 101.181213 
L 683.330924 101.946731 
L 686.548299 104.1914 
L 689.765674 104.233995 
L 692.983048 103.984162 
L 696.200423 103.534628 
L 699.417797 106.678999 
L 702.635172 106.647752 
L 705.852547 103.580017 
L 709.069921 102.770265 
L 712.287296 103.404412 
L 715.50467 102.994266 
L 718.722045 101.291619 
L 721.93942 101.751624 
L 725.156794 100.449062 
L 728.374169 101.428122 
L 731.591543 108.901888 
L 734.808918 109.207536 
L 738.026293 102.452677 
L 741.243667 102.434816 
L 744.461042 102.292693 
L 747.678416 103.315167 
L 750.895791 103.033544 
L 754.113165 119.441979 
L 757.33054 135.630604 
L 760.547915 151.385407 
L 763.765289 158.701367 
" clip-path="url(#p0ec0be1909)" style="fill: none; stroke: #ff0000; stroke-width: 0.8; stroke-linecap: square"/>
   </g>
   <g id="patch_9">
    <path d="M 473.236364 256.32 
L 473.236364 34.56 
" style="fill: none; stroke: #000000; stroke-width: 0.8; stroke-linejoin: miter; stroke-linecap: square"/>
   </g>
   <g id="patch_10">
    <path d="M 777.6 256.32 
L 777.6 34.56 
" style="fill: none; stroke: #000000; stroke-width: 0.8; stroke-linejoin: miter; stroke-linecap: square"/>
   </g>
   <g id="patch_11">
    <path d="M 473.236364 256.32 
L 777.6 256.32 
" style="fill: none; stroke: #000000; stroke-width: 0.8; stroke-linejoin: miter; stroke-linecap: square"/>
   </g>
   <g id="patch_12">
    <path d="M 473.236364 34.56 
L 777.6 34.56 
" style="fill: none; stroke: #000000; stroke-width: 0.8; stroke-linejoin: miter; stroke-linecap: square"/>
   </g>
   <g id="text_34">
    <!-- Average Latency(Forward+Backward) Intel i5 4Core 2.0GHz -->
    <g transform="translate(446.049119 28.56)scale(0.12 -0.12)">
     <defs>
      <path id="DejaVuSans-4c" d="M 628 4666 
L 1259 4666 
L 1259 531 
L 3531 531 
L 3531 0 
L 628 0 
L 628 4666 
z
" transform="scale(0.015625)"/>
      <path id="DejaVuSans-46" d="M 628 4666 
L 3309 4666 
L 3309 4134 
L 1259 4134 
L 1259 2759 
L 3109 2759 
L 3109 2228 
L 1259 2228 
L 1259 0 
L 628 0 
L 628 4666 
z
" transform="scale(0.015625)"/>
      <path id="DejaVuSans-2b" d="M 2944 4013 
L 2944 2272 
L 4684 2272 
L 4684 1741 
L 2944 1741 
L 2944 0 
L 2419 0 
L 2419 1741 
L 678 1741 
L 678 2272 
L 2419 2272 
L 2419 4013 
L 2944 4013 
z
" transform="scale(0.015625)"/>
      <path id="DejaVuSans-42" d="M 1259 2228 
L 1259 519 
L 2272 519 
Q 2781 519 3026 730 
Q 3272 941 3272 1375 
Q 3272 1813 3026 2020 
Q 2781 2228 2272 2228 
L 1259 2228 
z
M 1259 4147 
L 1259 2741 
L 2194 2741 
Q 2656 2741 2882 2914 
Q 3109 3088 3109 3444 
Q 3109 3797 2882 3972 
Q 2656 4147 2194 4147 
L 1259 4147 
z
M 628 4666 
L 2241 4666 
Q 2963 4666 3353 4366 
Q 3744 4066 3744 3513 
Q 3744 3084 3544 2831 
Q 3344 2578 2956 2516 
Q 3422 2416 3680 2098 
Q 3938 1781 3938 1306 
Q 3938 681 3513 340 
Q 3088 0 2303 0 
L 628 0 
L 628 4666 
z
" transform="scale(0.015625)"/>
      <path id="DejaVuSans-49" d="M 628 4666 
L 1259 4666 
L 1259 0 
L 628 0 
L 628 4666 
z
" transform="scale(0.015625)"/>
      <path id="DejaVuSans-43" d="M 4122 4306 
L 4122 3641 
Q 3803 3938 3442 4084 
Q 3081 4231 2675 4231 
Q 1875 4231 1450 3742 
Q 1025 3253 1025 2328 
Q 1025 1406 1450 917 
Q 1875 428 2675 428 
Q 3081 428 3442 575 
Q 3803 722 4122 1019 
L 4122 359 
Q 3791 134 3420 21 
Q 3050 -91 2638 -91 
Q 1578 -91 968 557 
Q 359 1206 359 2328 
Q 359 3453 968 4101 
Q 1578 4750 2638 4750 
Q 3056 4750 3426 4639 
Q 3797 4528 4122 4306 
z
" transform="scale(0.015625)"/>
      <path id="DejaVuSans-47" d="M 3809 666 
L 3809 1919 
L 2778 1919 
L 2778 2438 
L 4434 2438 
L 4434 434 
Q 4069 175 3628 42 
Q 3188 -91 2688 -91 
Q 1594 -91 976 548 
Q 359 1188 359 2328 
Q 359 3472 976 4111 
Q 1594 4750 2688 4750 
Q 3144 4750 3555 4637 
Q 3966 4525 4313 4306 
L 4313 3634 
Q 3963 3931 3569 4081 
Q 3175 4231 2741 4231 
Q 1884 4231 1454 3753 
Q 1025 3275 1025 2328 
Q 1025 1384 1454 906 
Q 1884 428 2741 428 
Q 3075 428 3337 486 
Q 3600 544 3809 666 
z
" transform="scale(0.015625)"/>
      <path id="DejaVuSans-48" d="M 628 4666 
L 1259 4666 
L 1259 2753 
L 3553 2753 
L 3553 4666 
L 4184 4666 
L 4184 0 
L 3553 0 
L 3553 2222 
L 1259 2222 
L 1259 0 
L 628 0 
L 628 4666 
z
" transform="scale(0.015625)"/>
      <path id="DejaVuSans-7a" d="M 353 3500 
L 3084 3500 
L 3084 2975 
L 922 459 
L 3084 459 
L 3084 0 
L 275 0 
L 275 525 
L 2438 3041 
L 353 3041 
L 353 3500 
z
" transform="scale(0.015625)"/>
     </defs>
     <use xlink:href="#DejaVuSans-41"/>
     <use xlink:href="#DejaVuSans-76" x="62.533203"/>
     <use xlink:href="#DejaVuSans-65" x="121.712891"/>
     <use xlink:href="#DejaVuSans-72" x="183.236328"/>
     <use xlink:href="#DejaVuSans-61" x="224.349609"/>
     <use xlink:href="#DejaVuSans-67" x="285.628906"/>
     <use xlink:href="#DejaVuSans-65" x="349.105469"/>
     <use xlink:href="#DejaVuSans-20" x="410.628906"/>
     <use xlink:href="#DejaVuSans-4c" x="442.416016"/>
     <use xlink:href="#DejaVuSans-61" x="498.128906"/>
     <use xlink:href="#DejaVuSans-74" x="559.408203"/>
     <use xlink:href="#DejaVuSans-65" x="598.617188"/>
     <use xlink:href="#DejaVuSans-6e" x="660.140625"/>
     <use xlink:href="#DejaVuSans-63" x="723.519531"/>
     <use xlink:href="#DejaVuSans-79" x="778.5"/>
     <use xlink:href="#DejaVuSans-28" x="837.679688"/>
     <use xlink:href="#DejaVuSans-46" x="876.693359"/>
     <use xlink:href="#DejaVuSans-6f" x="930.587891"/>
     <use xlink:href="#DejaVuSans-72" x="991.769531"/>
     <use xlink:href="#DejaVuSans-77" x="1032.882812"/>
     <use xlink:href="#DejaVuSans-61" x="1114.669922"/>
     <use xlink:href="#DejaVuSans-72" x="1175.949219"/>
     <use xlink:href="#DejaVuSans-64" x="1215.3125"/>
     <use xlink:href="#DejaVuSans-2b" x="1278.789062"/>
     <use xlink:href="#DejaVuSans-42" x="1362.578125"/>
     <use xlink:href="#DejaVuSans-61" x="1431.181641"/>
     <use xlink:href="#DejaVuSans-63" x="1492.460938"/>
     <use xlink:href="#DejaVuSans-6b" x="1547.441406"/>
     <use xlink:href="#DejaVuSans-77" x="1605.351562"/>
     <use xlink:href="#DejaVuSans-61" x="1687.138672"/>
     <use xlink:href="#DejaVuSans-72" x="1748.417969"/>
     <use xlink:href="#DejaVuSans-64" x="1787.78125"/>
     <use xlink:href="#DejaVuSans-29" x="1851.257812"/>
     <use xlink:href="#DejaVuSans-20" x="1890.271484"/>
     <use xlink:href="#DejaVuSans-49" x="1922.058594"/>
     <use xlink:href="#DejaVuSans-6e" x="1951.550781"/>
     <use xlink:href="#DejaVuSans-74" x="2014.929688"/>
     <use xlink:href="#DejaVuSans-65" x="2054.138672"/>
     <use xlink:href="#DejaVuSans-6c" x="2115.662109"/>
     <use xlink:href="#DejaVuSans-20" x="2143.445312"/>
     <use xlink:href="#DejaVuSans-69" x="2175.232422"/>
     <use xlink:href="#DejaVuSans-35" x="2203.015625"/>
     <use xlink:href="#DejaVuSans-20" x="2266.638672"/>
     <use xlink:href="#DejaVuSans-34" x="2298.425781"/>
     <use xlink:href="#DejaVuSans-43" x="2362.048828"/>
     <use xlink:href="#DejaVuSans-6f" x="2431.873047"/>
     <use xlink:href="#DejaVuSans-72" x="2493.054688"/>
     <use xlink:href="#DejaVuSans-65" x="2531.917969"/>
     <use xlink:href="#DejaVuSans-20" x="2593.441406"/>
     <use xlink:href="#DejaVuSans-32" x="2625.228516"/>
     <use xlink:href="#DejaVuSans-2e" x="2688.851562"/>
     <use xlink:href="#DejaVuSans-30" x="2720.638672"/>
     <use xlink:href="#DejaVuSans-47" x="2784.261719"/>
     <use xlink:href="#DejaVuSans-48" x="2861.751953"/>
     <use xlink:href="#DejaVuSans-7a" x="2936.947266"/>
    </g>
   </g>
  </g>
 </g>
 <defs>
  <clipPath id="p91bf2ac096">
   <rect x="108" y="34.56" width="304.363636" height="221.76"/>
  </clipPath>
  <clipPath id="p0ec0be1909">
   <rect x="473.236364" y="34.56" width="304.363636" height="221.76"/>
  </clipPath>
 </defs>
</svg>
